<svg xmlns="http://www.w3.org/2000/svg" viewBox="0 0 647 647"><defs><style>.cls-1{opacity:0.19;}.cls-2{fill:#a1e42c;}.cls-3{fill:#b9ea6a;}.cls-4{fill:#89c627;}.cls-5{fill:#fcdd2e;}.cls-6{fill:#fbe77b;}</style></defs><title>Ресурс 1</title><g id="Слой_2" data-name="Слой 2"><g id="Слой_1-2" data-name="Слой 1"><g class="cls-1"><path class="cls-2" d="M323.5,252,124.36,162.66,323.5,73.3l199.14,89.36Z"/><path class="cls-3" d="M124.36,162.66,323.5,252V509.87L124.36,420.51Z"/><path class="cls-4" d="M522.64,162.66,323.5,252V509.87l199.14-89.36Z"/><path class="cls-5" d="M605,347.87c-18-19.38-42.74-36.32-73.54-50.35q-4.32-2-8.78-3.83v63.72c29.69,18.53,47.23,41.37,47.23,66.07,0,41.57-49.64,77.87-123.38,97.26l60.62,38.66c8.4-3.1,16.53-6.42,24.31-10,30.8-14,55.54-31,73.54-50.35,21.3-22.94,32.56-49.09,32.56-75.6S626.26,370.82,605,347.87Z"/><path class="cls-6" d="M440.94,562.62,323.5,487.72v48c-136.06,0-246.37-50.24-246.37-112.22,0-24.7,17.54-47.54,47.23-66.07V293.69c-3,1.25-5.9,2.52-8.78,3.83-30.8,14-55.54,31-73.53,50.36C20.74,370.82,9.48,397,9.48,423.48S20.74,476.14,42,499.08c18,19.39,42.74,36.33,73.54,50.35,56.61,25.79,130.46,40,207.92,40v48.09Z"/><path d="M490.67,215.12,457.48,230a9.48,9.48,0,0,0,7.76,17.3l33.19-14.89a9.48,9.48,0,0,0-7.76-17.3Z"/><path d="M490.67,258.69l-33.19,14.89a9.48,9.48,0,0,0,3.89,18.13,9.35,9.35,0,0,0,3.87-.84L498.43,276a9.48,9.48,0,1,0-7.76-17.29Z"/><path d="M246.08,355.51l-12.5,5.61a9.48,9.48,0,0,0,3.89,18.13,9.31,9.31,0,0,0,3.87-.84l12.5-5.6a9.48,9.48,0,0,0-7.76-17.3Z"/><path d="M206.52,373.26,194,378.87a9.48,9.48,0,1,0,7.76,17.29l12.49-5.6a9.48,9.48,0,0,0-7.76-17.3Z"/><path d="M167,391l-12.49,5.61a9.48,9.48,0,1,0,7.76,17.29l12.49-5.6A9.48,9.48,0,0,0,167,391Z"/><path d="M285.64,337.76l-12.5,5.61A9.48,9.48,0,0,0,277,361.49a9.33,9.33,0,0,0,3.87-.83l12.5-5.6a9.48,9.48,0,0,0-7.76-17.3Z"/><path d="M492.53,396.62,480,391a9.48,9.48,0,1,0-7.76,17.3l12.49,5.6a9.48,9.48,0,1,0,7.76-17.29Z"/><path d="M453,378.87l-12.49-5.61a9.48,9.48,0,1,0-7.76,17.3l12.49,5.6A9.48,9.48,0,1,0,453,378.87Z"/><path d="M413.42,361.12l-12.5-5.61a9.48,9.48,0,0,0-7.76,17.3l12.49,5.6a9.39,9.39,0,0,0,3.88.84,9.48,9.48,0,0,0,3.89-18.13Z"/><path d="M373.86,343.37l-12.5-5.61a9.48,9.48,0,0,0-7.76,17.3l12.5,5.6a9.33,9.33,0,0,0,3.87.83,9.48,9.48,0,0,0,3.89-18.12Z"/><path d="M333,87.94l49.83,22.37A9.48,9.48,0,0,0,390.57,93L327.38,64.66a9.46,9.46,0,0,0-7.76,0L256.43,93a9.48,9.48,0,0,0,7.76,17.3L314,87.94V88a9.48,9.48,0,0,0,19,0Z"/><path d="M323.5,196.79a9.48,9.48,0,0,0-9.48,9.48v13.91a9.48,9.48,0,0,0,19,0V206.27A9.48,9.48,0,0,0,323.5,196.79Z"/><path d="M333,162.22a9.48,9.48,0,0,0-19,0v13.91a9.48,9.48,0,0,0,19,0Z"/><path d="M333,118.18a9.48,9.48,0,0,0-19,0v13.91a9.48,9.48,0,0,0,19,0Z"/><path d="M611.9,341.43c-18.85-20.31-44.61-38-76.55-52.53-1-.47-2.12-1-3.23-1.44V162.66s0,0,0-.08a9.48,9.48,0,0,0-5.59-8.57l-95.36-42.78a9.48,9.48,0,1,0-7.76,17.29l76.08,34.14-176,79-176-79,76.09-34.14a9.48,9.48,0,0,0-7.76-17.29L120.48,154a9.5,9.5,0,0,0-5.6,8.65V287.45l-3.23,1.45C79.71,303.45,54,321.12,35.1,341.43,12.14,366.16,0,394.53,0,423.48s12.14,57.32,35.1,82c18.85,20.31,44.61,38,76.55,52.53,55.5,25.28,127,39.66,202.37,40.77v38.69a9.48,9.48,0,0,0,14.58,8L446,570.61a9.48,9.48,0,0,0,0-16l-82.25-52.46,162.73-73a9.47,9.47,0,0,0,5.6-8.65V375.68c14.94,12,28.27,28.2,28.27,47.8,0,35.47-44.57,69.23-116.31,88.09a9.48,9.48,0,0,0-2.69,17.16L502,567.39a9.49,9.49,0,0,0,5.09,1.49,9.27,9.27,0,0,0,3.28-.59c8.72-3.22,17.12-6.66,25-10.23,31.94-14.55,57.7-32.22,76.55-52.53,23-24.73,35.1-53.1,35.1-82s-12.14-57.32-35.1-82.05ZM120.48,429.16,314,516v10.13C189.8,523.89,86.61,477.8,86.61,423.48c0-19.61,13.33-35.8,28.28-47.8v44.84A9.48,9.48,0,0,0,120.48,429.16ZM333,620.24V589.43A9.48,9.48,0,0,0,323.5,580c-76.14,0-148.59-13.9-204-39.14C89.86,527.3,66.13,511.1,49,492.63c-19.65-21.16-30-45.07-30-69.15s10.38-48,30-69.16c16.24-17.49,38.4-32.95,65.9-46v43.94C84,372.79,67.65,397.34,67.65,423.48c0,33.91,27.6,65.15,77.71,88,47.74,21.74,111,33.72,178.14,33.72A9.48,9.48,0,0,0,333,535.7V505l90.33,57.62ZM344.67,490,333,482.52V430.28a9.48,9.48,0,0,0-19,0v65L133.84,414.38V177.3L314,258.15v127.7a9.48,9.48,0,1,0,19,0V258.15L513.16,177.3V414.38ZM598,492.63c-17.14,18.47-40.87,34.67-70.52,48.18-6.1,2.78-12.57,5.48-19.28,8.05l-39-24.88c69.4-22.42,110.15-59.21,110.15-100.5,0-26.14-16.31-50.69-47.22-71.23V308.31c27.49,13.06,49.65,28.53,65.89,46,19.65,21.17,30,45.08,30,69.16s-10.38,48-30,69.15Z"/><path d="M176.5,75l40.35,6.36a9.48,9.48,0,1,0,3-18.72l-19.16-3C231.55,37.92,277.45,19,323.5,19s91.95,19,122.87,40.66l-19.17,3a9.48,9.48,0,1,0,2.95,18.72L470.5,75a9.47,9.47,0,0,0,7.88-10.84L472,23.82a9.48,9.48,0,1,0-18.72,2.95l2.58,16.39C423.85,21,375.72,0,323.5,0S223.15,21,191.12,43.15l2.58-16.38A9.48,9.48,0,1,0,175,23.82l-6.37,40.35A9.49,9.49,0,0,0,176.5,75Z"/></g></g></g></svg>