<svg xmlns="http://www.w3.org/2000/svg" viewBox="0 0 131 131"><defs><style>.cls-1{fill:#3fb777;}.cls-2{fill:#2a2f4f;}.cls-3{fill:#3d4159;}.cls-4{fill:#f2f0ec;}.cls-5{fill:#d8d5d0;}.cls-6{fill:#f74f4f;}.cls-7{fill:#dd3033;}.cls-8{fill:#eab599;}.cls-9{fill:#f6caae;}.cls-10{fill:#dde8ed;}.cls-11{fill:#bfd5de;}.cls-12{fill:#fff;}.cls-13{fill:#66baed;}.cls-14{fill:#2ba1cf;}</style></defs><title>admin_1</title><g id="Слой_2" data-name="Слой 2"><g id="Слой_1-2" data-name="Слой 1"><path class="cls-1" d="M131,65.5A65.5,65.5,0,1,1,65.5,0,65.49,65.49,0,0,1,131,65.5Z"/><path class="cls-2" d="M97.77,115v7.48a64.92,64.92,0,0,1-21.47,7.6c-1.65.27-3.32.49-5,.64-1,.09-2.11.16-3.18.2-.87,0-1.74.05-2.62.05-2,0-3.89-.09-5.8-.25a65.2,65.2,0,0,1-14-2.81l-.48-.16a64.84,64.84,0,0,1-12-5.27V115a24.34,24.34,0,0,1,18-23.51c.38-.11.77-.2,1.15-.28a24,24,0,0,1,3.17-.47c.66,0,1.32-.08,2-.08H73.42a24.44,24.44,0,0,1,5.17.55l.28.06c.28.06.57.13.84.21h0a24.37,24.37,0,0,1,18,23.52Z"/><path class="cls-3" d="M97.77,115v7.48a64.92,64.92,0,0,1-21.47,7.6c-1.65.27-3.32.49-5,.64-1,.09-2.11.16-3.18.2-.87,0-1.74.05-2.62.05-2,0-3.89-.09-5.8-.25a65.2,65.2,0,0,1-14-2.81l-.48-.16V115a24.34,24.34,0,0,1,18-23.51c.38-.11.76-.2,1.15-.28a23.5,23.5,0,0,1,3.17-.47c.66,0,1.32-.08,2-.08h3.9a24.44,24.44,0,0,1,5.17.55l.28.06c.28.06.57.13.84.21h0a24.37,24.37,0,0,1,18,23.52Z"/><path class="cls-4" d="M79.79,91.24l-.06.27L71.3,130.75c-1.91.16-3.85.25-5.8.25s-3.89-.09-5.8-.25L51.26,91.51l-.06-.27Z"/><path class="cls-5" d="M65.5,100.65l-11,6.09L51.2,91.24l6.81-4"/><path class="cls-5" d="M65.5,100.65l11,6.09,3.33-15.5-6.81-4"/><path class="cls-6" d="M32.78,84.82V48.11A32.7,32.7,0,0,1,65.5,15.39a33.2,33.2,0,0,1,5.1.39A32.73,32.73,0,0,1,98.22,48.11V84.82"/><path class="cls-7" d="M46.24,49.54c0,13,7.6,28,11.78,35.28H32.78V48.11A32.7,32.7,0,0,1,65.26,15.39C55.2,15.64,46.24,31.78,46.24,49.54Z"/><path class="cls-8" d="M74.19,81.31V92a8.68,8.68,0,0,1-6.12,8.29,8.42,8.42,0,0,1-2.57.39A8.67,8.67,0,0,1,56.82,92V81.31Z"/><path class="cls-9" d="M74.19,91.29V92a8.68,8.68,0,0,1-6.12,8.29,8.68,8.68,0,0,1-6-7.16c.58,0,1.17.05,1.75.05a30.67,30.67,0,0,0,4.83-.38A29.11,29.11,0,0,0,74.19,91.29Z"/><path class="cls-9" d="M41.68,63.84a8.08,8.08,0,0,1-6.79,8,7.84,7.84,0,0,1-1.29.1,8.08,8.08,0,1,1,0-16.15,7.84,7.84,0,0,1,1.29.1A8.09,8.09,0,0,1,41.68,63.84Z"/><path class="cls-8" d="M41.68,63.84a8.08,8.08,0,0,1-6.79,8,30.25,30.25,0,0,1,0-15.95A8.09,8.09,0,0,1,41.68,63.84Z"/><path class="cls-8" d="M36.49,63.84A2.89,2.89,0,1,1,33.6,61,2.89,2.89,0,0,1,36.49,63.84Z"/><path class="cls-8" d="M86.24,53.53V81.29a29.88,29.88,0,0,1-15.92,7.92l-.15,0A30.08,30.08,0,0,1,35.45,59.55V48.11a30.69,30.69,0,0,1,.31-4.31,19,19,0,0,0,23.93-1.54A17,17,0,0,0,64.2,35.2a19.83,19.83,0,0,0,6.21,12.38A22.15,22.15,0,0,0,86.24,53.53Z"/><path class="cls-9" d="M86.24,53.53V81.29a29.92,29.92,0,0,1-15.92,7.92l-.15,0A30.05,30.05,0,0,1,44.81,59.55V48.11c0-.3,0-.61,0-.91a18.85,18.85,0,0,0,14.87-4.94A17.09,17.09,0,0,0,64.2,35.2a19.83,19.83,0,0,0,6.21,12.38,21.07,21.07,0,0,0,4.19,3.09A22.32,22.32,0,0,0,77,51.82h0a22.64,22.64,0,0,0,8.84,1.72Z"/><path class="cls-8" d="M58.45,55.9H80.52V66.51H58.45Z"/><path class="cls-8" d="M86,67.44a3.74,3.74,0,1,1-3.74-3.74A3.74,3.74,0,0,1,86,67.44Z"/><path class="cls-8" d="M52.53,67.44a3.74,3.74,0,1,1-3.74-3.74A3.74,3.74,0,0,1,52.53,67.44Z"/><path class="cls-10" d="M45.17,60.12h0a8.45,8.45,0,0,0,8.35,8.3h.6A8.43,8.43,0,0,0,62.43,60V57.45l-.09-3.32a1.09,1.09,0,0,0-.73-1,23.78,23.78,0,0,0-15.71,0,1.09,1.09,0,0,0-.73,1v5.93Z"/><path class="cls-10" d="M86.09,57.45V60a8.43,8.43,0,0,1-8.31,8.44h-.6a8.45,8.45,0,0,1-8.35-8.3V54.19a1.09,1.09,0,0,1,.73-1A24.11,24.11,0,0,1,77,51.82h0a22.64,22.64,0,0,0,8.84,1.72,1.1,1.1,0,0,1,.2.59Z"/><path class="cls-11" d="M81.64,57a5,5,0,1,0-10,0"/><path class="cls-11" d="M59.35,57a5,5,0,0,0-10,0"/><path class="cls-3" d="M57.77,59.14a3.41,3.41,0,1,1-3.41-3.41A3.41,3.41,0,0,1,57.77,59.14Z"/><path class="cls-3" d="M80.06,59.14a3.41,3.41,0,1,1-3.41-3.41A3.41,3.41,0,0,1,80.06,59.14Z"/><path class="cls-8" d="M65.5,77a15.08,15.08,0,0,1-7.32-1.9,1.33,1.33,0,1,1,1.28-2.34,12.47,12.47,0,0,0,12.08,0,1.34,1.34,0,0,1,1.29,2.34A15.12,15.12,0,0,1,65.5,77Z"/><path class="cls-12" d="M57.07,58.54a1.46,1.46,0,1,1-1.46-1.46A1.46,1.46,0,0,1,57.07,58.54Z"/><path class="cls-8" d="M69.18,68.39H62.36a1.47,1.47,0,0,1,0-2.94h6.82a1.47,1.47,0,0,1,0,2.94Z"/><path class="cls-12" d="M79.53,58.54a1.46,1.46,0,1,1-1.46-1.46A1.46,1.46,0,0,1,79.53,58.54Z"/><path class="cls-4" d="M46.69,60.26H44V54.19a2.42,2.42,0,0,1,1.62-2.28,25.1,25.1,0,0,1,16.59,0,2.44,2.44,0,0,1,1.63,2.22L64,57.45v2.67H61.27V57.47l-.08-3.12a22.43,22.43,0,0,0-14.5,0Z"/><path class="cls-4" d="M86.24,53.53v6.59H84.93V57.47l-.08-3.12a22.43,22.43,0,0,0-14.5,0v5.89H67.68V54.19a2.42,2.42,0,0,1,1.62-2.28,24.89,24.89,0,0,1,5.3-1.24A22.51,22.51,0,0,0,86.24,53.53Z"/><path class="cls-4" d="M62.52,54.13H69v2.68h-6.5Z"/><path class="cls-4" d="M45.78,54.68l-.85,2.54-1.83-.61-7.65-2.37V51.43l8,2.49Z"/><path class="cls-13" d="M58.48,98.16l-2.69,3.5-7.34,2-4.34,1.15-3.38-3.12-.28-.26c-9.54-8.91-14.05-15.91-18.2-28.28-.05-.12-.09-.24-.13-.36l-1.44-4.37,2.85-3.47L28.36,59l4.29-1,.66,1.69,1.88,4.77,2.71,6.9-3.53,3.23L32,76.79c1.1,3.51,6.41,11.76,9.15,14.21l3-1.27,4.39-1.89,5.16,5.34,3.57,3.68h0Z"/><path class="cls-4" d="M48.49,87.85,44.1,89.73l11.69,11.93,2.69-3.5Z"/><path class="cls-4" d="M37.9,71.39l-3.54,3.22L28.35,59l4.3-1Z"/><path class="cls-14" d="M48.45,103.62l-4.34,1.15-3.38-3.12-.28-.26c-9.54-8.91-14.05-15.91-18.2-28.28-.05-.12-.09-.24-.13-.36l-1.44-4.37,2.85-3.47s.91,23.68,24.92,38.7Z"/><path class="cls-8" d="M40.38,88.05l-4.07,4.06a5.53,5.53,0,0,1-6.54,1,5.25,5.25,0,0,1-1.3-1,5.53,5.53,0,0,1,0-7.84l4.06-4.07a5.56,5.56,0,0,1,7.85,0,5.9,5.9,0,0,1,1,1.3A5.55,5.55,0,0,1,40.38,88.05Z"/><path class="cls-9" d="M40.38,88.05l-4.07,4.06a5.53,5.53,0,0,1-6.54,1,5.53,5.53,0,0,1,1-6.54l4.06-4.07a5.54,5.54,0,0,1,6.54-1A5.55,5.55,0,0,1,40.38,88.05Z"/><path class="cls-2" d="M35.12,123.54A64.73,64.73,0,0,1,26.31,118q-2.18-1.62-4.21-3.42a63.46,63.46,0,0,1,4.07-24.19l3.52,1.33,7.61,2.88A51.36,51.36,0,0,0,35.12,123.54Z"/><path class="cls-3" d="M35.12,123.54A64.73,64.73,0,0,1,26.31,118,63.18,63.18,0,0,1,29.69,91.7l7.61,2.88A51.36,51.36,0,0,0,35.12,123.54Z"/><path class="cls-4" d="M75.43,4.35h48.75V41H75.43Z"/><path class="cls-4" d="M100.2,38.7,95,51.14l22.91-13.09Z"/><path class="cls-3" d="M99.07,29.59a3,3,0,0,0,0,5.9,3,3,0,0,0,0-5.9Z"/><path class="cls-3" d="M99.31,9.85c-3,0-6.31,1.66-6.31,4a2.34,2.34,0,0,0,2.32,2.36,2.56,2.56,0,0,0,1.82-.9,2.39,2.39,0,0,1,2-.8c2.54,0,2.54,1.68,2.54,2.23,0,1.76-1.11,2.73-2.27,3.76-.3.26-.58.51-.85.77a2.86,2.86,0,0,1-.31.27c-1.07.85-1.55,1.71-1.55,4.54a2.36,2.36,0,0,0,4.7.3,8.74,8.74,0,0,1,.06-1.45,4.23,4.23,0,0,1,.48-.52l.24-.23,0,0a9.68,9.68,0,0,1,.71-.69c1.35-1.26,3.63-3.37,3.63-6.91C106.62,12.55,103.68,9.85,99.31,9.85Z"/></g></g></svg>