<svg xmlns="http://www.w3.org/2000/svg" viewBox="0 0 133.74 134"><defs><style>.cls-1{fill:#8f9392;}.cls-2{fill:#f2f0ec;}.cls-3{fill:#d8d5d0;}.cls-4{fill:#3d4159;}.cls-5{fill:#f6caae;}.cls-6{fill:#f74f4f;}.cls-7{fill:#eab599;}.cls-8{fill:#fff;}.cls-9{fill:#2a2f4f;}.cls-10{fill:#a35418;}.cls-11{fill:#cc7a3b;}</style></defs><title>texinc</title><g id="Слой_2" data-name="Слой 2"><g id="Слой_1-2" data-name="Слой 1"><path class="cls-1" d="M133.74,67.05a66.58,66.58,0,0,1-8,31.64c0,.06-.07.12-.1.19-.48.88-1,1.76-1.5,2.63A67.23,67.23,0,0,1,105,122c-.73.51-1.47,1-2.23,1.49a66.94,66.94,0,1,1,30.93-56.39Z"/><path class="cls-2" d="M.16,55.88,3.3,64a2.33,2.33,0,0,0,2.87,1.37l6.74-2.12a2.33,2.33,0,0,1,2.59.86,34.3,34.3,0,0,0,6.39,6.67,2.35,2.35,0,0,1,.76,2.63L20.24,80a2.32,2.32,0,0,0,1.25,2.92l7.94,3.5a2.34,2.34,0,0,0,3-1.06l3.26-6.27a2.34,2.34,0,0,1,2.45-1.22,34.73,34.73,0,0,0,9.23.2,2.34,2.34,0,0,1,2.39,1.32l3,6.4a2.33,2.33,0,0,0,3,1.19l8.07-3.15A2.32,2.32,0,0,0,65.16,81L63,74.24a2.35,2.35,0,0,1,.87-2.59,34.54,34.54,0,0,0,6.66-6.39,2.35,2.35,0,0,1,2.63-.76l6.65,2.41a2.32,2.32,0,0,0,2.92-1.25l3.49-7.94a2.33,2.33,0,0,0-1.06-3l-6.26-3.26A2.33,2.33,0,0,1,77.71,49a34.73,34.73,0,0,0,.2-9.23,2.34,2.34,0,0,1,1.32-2.39l6.4-3a2.33,2.33,0,0,0,1.18-3l-3.15-8.08A2.31,2.31,0,0,0,80.8,22l-6.74,2.12a2.33,2.33,0,0,1-2.59-.86,34.24,34.24,0,0,0-6.39-6.66A2.35,2.35,0,0,1,64.32,14l2.42-6.65a2.33,2.33,0,0,0-1.26-2.92l-2.17-1L57.55.9a2.32,2.32,0,0,0-3,1L51.28,8.22a2.32,2.32,0,0,1-2.45,1.22,34.73,34.73,0,0,0-9.23-.2,2.35,2.35,0,0,1-2.39-1.32l-2-4.21-1-2.19A2.33,2.33,0,0,0,31.27.33L23.19,3.48a2.32,2.32,0,0,0-1.37,2.87l2.12,6.73a2.33,2.33,0,0,1-.87,2.59,34.59,34.59,0,0,0-6.66,6.4,2.35,2.35,0,0,1-2.63.76L7.14,20.41a2.34,2.34,0,0,0-2.93,1.25L.72,29.6a2.33,2.33,0,0,0,1.06,3l6.27,3.27a2.34,2.34,0,0,1,1.22,2.44,34.39,34.39,0,0,0-.21,9.24,2.33,2.33,0,0,1-1.32,2.39l-6.4,3A2.31,2.31,0,0,0,.16,55.88ZM38.75,29.33a15.09,15.09,0,1,1-9,20.53A15.16,15.16,0,0,1,38.75,29.33Z"/><path class="cls-3" d="M14.75,43.66A28.73,28.73,0,1,0,43.48,14.93,28.73,28.73,0,0,0,14.75,43.66Zm24-14.33a15.09,15.09,0,1,1-9,20.53A15.16,15.16,0,0,1,38.75,29.33Z"/><path class="cls-3" d="M127.92,39.72A67.27,67.27,0,0,0,96.17,6.92,2.25,2.25,0,0,1,95,7.48L88,8.62a2.33,2.33,0,0,0-1.94,2.52l.83,8.63a2.32,2.32,0,0,0,2.39,2.1l7.06-.21a2.34,2.34,0,0,1,2.26,1.53A34.26,34.26,0,0,0,103,31.35a2.34,2.34,0,0,1,0,2.74l-4.13,5.73A2.31,2.31,0,0,0,99.26,43L106,48.49a2.34,2.34,0,0,0,3.18-.2L114,43.15a2.35,2.35,0,0,1,2.69-.51,34,34,0,0,0,8.83,2.7,2.35,2.35,0,0,1,1.94,1.93l1.14,7a2.31,2.31,0,0,0,2.52,1.94l1.74-.17A66.36,66.36,0,0,0,127.92,39.72Z"/><path class="cls-2" d="M102.38,10.38a28.74,28.74,0,0,0,20.91,28.43,28.06,28.06,0,0,0,4.63.91A67.09,67.09,0,0,0,102.38,10.38Z"/><path class="cls-3" d="M58.4,105.32l.59,9.87a2.66,2.66,0,0,0,2.64,2.49l8.06,0a2.67,2.67,0,0,1,2.51,1.85A39.24,39.24,0,0,0,76.82,129a2.66,2.66,0,0,1-.1,3.12l-.9,1.16a66.39,66.39,0,0,0,27.48-10.2,17.21,17.21,0,1,1,21.92-23.4,66.53,66.53,0,0,0,8.51-31.5l-3.2,3.17a2.7,2.7,0,0,1-3.09.47,38.7,38.7,0,0,0-10-3.44,2.67,2.67,0,0,1-2.13-2.27l-.67-5.26-.35-2.73a2.67,2.67,0,0,0-2.8-2.32l-9.86.6a2.67,2.67,0,0,0-2.5,2.64l0,8a2.66,2.66,0,0,1-1.84,2.51,39.43,39.43,0,0,0-9.47,4.62,2.67,2.67,0,0,1-3.12-.09l-6.37-4.94a2.66,2.66,0,0,0-3.61.34L68.17,77a2.66,2.66,0,0,0,.1,3.63l5.67,5.73a2.66,2.66,0,0,1,.47,3.08,39,39,0,0,0-3.44,10,2.65,2.65,0,0,1-2.27,2.13l-8,1A2.63,2.63,0,0,0,58.4,105.32Z"/><path class="cls-2" d="M87,130.82a66.37,66.37,0,0,0,16.27-7.7,17.21,17.21,0,1,1,21.92-23.4A66.4,66.4,0,0,0,131.83,83,32.78,32.78,0,0,0,87,130.82Z"/><path class="cls-2" d="M4.35,90.82a66,66,0,0,0,3.84,8.31c.55,1,1.12,2,1.72,3s1.3,2,2,3a67.2,67.2,0,0,0,7.87,9.38l.21.08h0a15.7,15.7,0,0,1,4.24,2.51,16.24,16.24,0,0,1,1.89,1.81,17.1,17.1,0,0,1,1.52,2c.1.16.21.33.3.49a66.62,66.62,0,0,0,13.88,7.64c1,.43,2.11.82,3.19,1.2a66.92,66.92,0,0,0,17.13,3.49,2.56,2.56,0,0,0,.47-1.58l-.45-9.39a2.53,2.53,0,0,0-2.48-2.41L52,120.23a2.53,2.53,0,0,1-2.37-1.79,37.24,37.24,0,0,0-4.26-9.06,2.54,2.54,0,0,1,.13-2.95l4.77-6A2.52,2.52,0,0,0,50,97l-7-6.33a2.52,2.52,0,0,0-3.44,0L34.12,96a2.53,2.53,0,0,1-2.94.41,37.48,37.48,0,0,0-9.41-3.38,2.53,2.53,0,0,1-2-2.19l-.87-7.61A2.53,2.53,0,0,0,16.27,81l-2.58.13-6.81.32a2.51,2.51,0,0,0-2.4,2.47Z"/><path class="cls-3" d="M8.19,99.13c.55,1,1.12,2,1.72,3s1.3,2,2,3a67.2,67.2,0,0,0,7.87,9.38l.21.08h0a15.7,15.7,0,0,1,4.24,2.51,16.24,16.24,0,0,1,1.89,1.81,17.1,17.1,0,0,1,1.52,2c.1.16.21.33.3.49a66.62,66.62,0,0,0,13.88,7.64c1,.43,2.11.82,3.19,1.2A31.17,31.17,0,0,0,8.19,99.13Z"/><path class="cls-4" d="M39.59,41.14a2,2,0,1,1-2-2A2,2,0,0,1,39.59,41.14Z"/><path class="cls-4" d="M48.6,50.15a1.95,1.95,0,1,1-2-1.95A2,2,0,0,1,48.6,50.15Z"/><path class="cls-4" d="M100.06,99v7.66a66.42,66.42,0,0,1-22,7.77c-1.68.28-3.39.5-5.12.65-1.07.1-2.15.16-3.24.2-.89,0-1.79.06-2.68.06-2,0-4-.09-5.94-.26a67,67,0,0,1-14.36-2.87,66.4,66.4,0,0,1-12.71-5.55V99a24.9,24.9,0,0,1,18.44-24c.39-.1.78-.2,1.18-.28a24.8,24.8,0,0,1,3.24-.48c.67-.06,1.35-.08,2-.08H75.16a24.76,24.76,0,0,1,5.28.56l.3.06.85.21h0a24.93,24.93,0,0,1,18.45,24Z"/><path class="cls-2" d="M81.67,74.66l-.06.28L73,115.07c-2,.17-3.93.26-5.92.26s-4-.09-5.94-.26L52.49,74.94l-.06-.28Z"/><path class="cls-5" d="M42.69,46.64a8.22,8.22,0,1,1-6.94-8.16A8.26,8.26,0,0,1,42.69,46.64Z"/><path class="cls-6" d="M73.74,83.08,67.06,93.8,60.37,83.08"/><path class="cls-6" d="M73.23,115.05c-2,.18-4.1.28-6.17.28s-4.14-.1-6.18-.28l6.18-24Z"/><path class="cls-7" d="M42.69,46.64a8.26,8.26,0,0,1-6.94,8.15,30.78,30.78,0,0,1,0-16.31A8.28,8.28,0,0,1,42.69,46.64Z"/><path class="cls-7" d="M37.38,46.64a3,3,0,1,1-3-3A2.95,2.95,0,0,1,37.38,46.64Z"/><path class="cls-3" d="M67.05,84.29,55.84,90.52,52.43,74.66l7-4.1"/><path class="cls-3" d="M67.05,84.29l11.21,6.23,3.41-15.86-7-4.1"/><path class="cls-5" d="M91.42,46.64a8.22,8.22,0,1,0,6.94-8.16A8.26,8.26,0,0,0,91.42,46.64Z"/><path class="cls-7" d="M91.42,46.64a8.26,8.26,0,0,0,6.94,8.15,30.78,30.78,0,0,0,0-16.31A8.28,8.28,0,0,0,91.42,46.64Z"/><path class="cls-7" d="M102.64,46.64a3,3,0,1,1-3-3A3,3,0,0,1,102.64,46.64Z"/><path class="cls-7" d="M97.79,42.25a30.74,30.74,0,0,1-61.47,0c0-8-.69-20.09,4.35-25.57,5.62-6.1,17.44-5.17,26.38-5.17a29.76,29.76,0,0,1,4.94.4A30.73,30.73,0,0,1,97.79,42.25Z"/><path class="cls-7" d="M75.94,64.51v10.9a8.87,8.87,0,0,1-6.26,8.48,8.77,8.77,0,0,1-2.63.4,8.89,8.89,0,0,1-8.88-8.88V64.51Z"/><path class="cls-5" d="M75.94,74.72v.69a8.87,8.87,0,0,1-6.26,8.48,8.86,8.86,0,0,1-6.18-7.33c.59,0,1.19.06,1.79.06a29.64,29.64,0,0,0,4.93-.4A30.25,30.25,0,0,0,75.94,74.72Z"/><path class="cls-5" d="M97.79,42.25A30.74,30.74,0,0,1,72,72.59a30.74,30.74,0,0,1,0-60.68A30.73,30.73,0,0,1,97.64,39.18C97.74,40.19,97.79,41.21,97.79,42.25Z"/><path class="cls-7" d="M67.05,58.75a15.53,15.53,0,0,1-7.49-1.93,1.37,1.37,0,1,1,1.32-2.4,12.73,12.73,0,0,0,12.35,0,1.37,1.37,0,0,1,1.32,2.4A15.54,15.54,0,0,1,67.05,58.75Z"/><path class="cls-4" d="M60.51,40.46A3.49,3.49,0,1,1,57,37,3.49,3.49,0,0,1,60.51,40.46Z"/><path class="cls-4" d="M80.57,40.46A3.49,3.49,0,1,1,77.09,37,3.49,3.49,0,0,1,80.57,40.46Z"/><path class="cls-8" d="M59.8,39.84a1.5,1.5,0,1,1-1.5-1.49A1.5,1.5,0,0,1,59.8,39.84Z"/><path class="cls-8" d="M80,39.84a1.49,1.49,0,1,1-1.49-1.49A1.49,1.49,0,0,1,80,39.84Z"/><path class="cls-7" d="M70.54,49.24h-7a1.51,1.51,0,1,1,0-3h7a1.51,1.51,0,1,1,0,3Z"/><path class="cls-9" d="M97.79,24.75v12H92.07V27.35L50.78,19.67,42,18.05V36.74H36.32v-12A24.75,24.75,0,0,1,61.06,0h12l1,0A24.74,24.74,0,0,1,97.79,24.75Z"/><path class="cls-4" d="M97.79,24.75v12H92.07V27.35L50.78,19.67A24.75,24.75,0,0,1,74,0,24.74,24.74,0,0,1,97.79,24.75Z"/><path class="cls-9" d="M89.34,78.53,82.1,96.06h3.55L78.1,114.42c-1.68.28-3.39.5-5.12.65-1.07.1-2.15.16-3.24.2L81.59,74.93l.08-.27Z"/><path class="cls-9" d="M44.68,78.53l7.25,17.53H48.37l7.55,18.36c1.69.28,3.39.5,5.12.65,1.07.1,2.16.16,3.25.2L52.43,74.93l-.08-.27Z"/><path class="cls-10" d="M103.36,111.73v11.59a66.85,66.85,0,0,1-72.65,0V111.73Z"/><path class="cls-11" d="M24,106.18h86.11v9.3H24Z"/></g></g></svg>