<svg xmlns="http://www.w3.org/2000/svg" xmlns:xlink="http://www.w3.org/1999/xlink" viewBox="0 0 291 290.92"><defs><style>.cls-1{opacity:0.3;}.cls-2{fill:url(#Безымянный_градиент_33);}.cls-3{fill:url(#Безымянный_градиент_33-2);}.cls-4{fill:url(#Безымянный_градиент_33-3);}.cls-5{fill:url(#Безымянный_градиент_33-4);}.cls-6{fill:url(#Безымянный_градиент_33-5);}.cls-7{fill:url(#Безымянный_градиент_33-6);}.cls-8{fill:url(#Безымянный_градиент_33-7);}.cls-9{fill:url(#Безымянный_градиент_33-8);}.cls-10{fill:url(#Безымянный_градиент_33-9);}.cls-11{fill:url(#Безымянный_градиент_33-10);}</style><linearGradient id="Безымянный_градиент_33" y1="146.06" x2="291" y2="146.06" gradientUnits="userSpaceOnUse"><stop offset="0" stop-color="#aaffa9"/><stop offset="1" stop-color="#11ffbd"/></linearGradient><linearGradient id="Безымянный_градиент_33-2" x1="169" y1="84.56" x2="246.26" y2="84.56" xlink:href="#Безымянный_градиент_33"/><linearGradient id="Безымянный_градиент_33-3" x1="141.3" y1="220.9" x2="150.96" y2="220.9" xlink:href="#Безымянный_градиент_33"/><linearGradient id="Безымянный_градиент_33-4" x1="78.49" y1="129.53" x2="150.96" y2="129.53" xlink:href="#Безымянный_градиент_33"/><linearGradient id="Безымянный_градиент_33-5" x1="237.87" y1="184.69" x2="271.67" y2="184.69" xlink:href="#Безымянный_градиент_33"/><linearGradient id="Безымянный_градиент_33-6" x1="229.96" y1="220.9" x2="265.11" y2="220.9" gradientTransform="translate(258.8 -110.68) rotate(50.2)" xlink:href="#Безымянный_градиент_33"/><linearGradient id="Безымянный_градиент_33-7" x1="208.9" y1="235.39" x2="218.56" y2="235.39" xlink:href="#Безымянный_градиент_33"/><linearGradient id="Безымянный_градиент_33-8" x1="4.93" y1="83.28" x2="45.9" y2="83.28" gradientTransform="translate(20.96 -3.68) rotate(14.03)" xlink:href="#Безымянный_градиент_33"/><linearGradient id="Безымянный_градиент_33-9" x1="12.95" y1="42.25" x2="52.36" y2="42.25" gradientTransform="translate(48.05 -8.88) rotate(54.46)" xlink:href="#Безымянный_градиент_33"/><linearGradient id="Безымянный_градиент_33-10" x1="54.32" y1="20.51" x2="73.55" y2="20.51" gradientTransform="translate(7.07 -15.2) rotate(14.34)" xlink:href="#Безымянный_градиент_33"/></defs><title>text</title><g id="Слой_2" data-name="Слой 2"><g id="Слой_1-2" data-name="Слой 1"><g class="cls-1"><path class="cls-2" d="M286.86,76.37h0l-18.79-2.68A4.82,4.82,0,0,1,265.85,65L281,53.66a4.83,4.83,0,0,0,1-6.76L264.61,23.72a4.82,4.82,0,0,0-6.76-1L242.67,34.14A4.83,4.83,0,0,1,235,29.59l2.68-18.78a4.82,4.82,0,0,0-4.09-5.46h0L204.9,1.25a4.83,4.83,0,0,0-5.47,4.09h0l-2.68,18.79a4.82,4.82,0,0,1-8.64,2.21L176.73,11.16a4.83,4.83,0,0,0-6.76-1L155.46,21.09a93.13,93.13,0,0,0-19.75,0,91.74,91.74,0,0,0-80.9,82.26c-.13,1.37-.17,2.72-.24,4.08H53.12a4.83,4.83,0,0,0-4.72,3.86l-3.34,15.87-13.37-9.22a4.84,4.84,0,0,0-6.15.56L11.05,133a4.83,4.83,0,0,0-.56,6.15l9.18,13.34L3.8,155.82A4.83,4.83,0,0,0,0,160.55v19.31a4.84,4.84,0,0,0,3.83,4.73l15.88,3.33-9.18,13.34a4.85,4.85,0,0,0,.56,6.16L25.58,221.9a4.81,4.81,0,0,0,6.15.56l13.34-9.2,3.34,15.88A4.84,4.84,0,0,0,53.13,233H72.45a4.84,4.84,0,0,0,4.73-3.84l3.33-15.87,13.34,9.18a4.83,4.83,0,0,0,6.15-.56l7.5-7.53v13.77a19.25,19.25,0,0,0,9.66,16.62V271.6a19.32,19.32,0,0,0,19.31,19.32h19.32A19.31,19.31,0,0,0,175.1,271.6V244.77a19.23,19.23,0,0,0,9.66-16.62V209a23.67,23.67,0,0,1,11.17-19.71,92.14,92.14,0,0,0,11.37-8.69l-6.45-7.19a82.67,82.67,0,0,1-10.17,7.78A33.23,33.23,0,0,0,175.1,209v19.12a9.65,9.65,0,0,1-9.65,9.65H126.82a9.65,9.65,0,0,1-9.66-9.65V208.63a32.48,32.48,0,0,0-15.32-27.25A81.84,81.84,0,0,1,145.09,30.25a4.56,4.56,0,0,0-.18.52,4.82,4.82,0,0,0,.92,3.58l11.38,15.18a4.74,4.74,0,0,1,.29,5.36,4.81,4.81,0,0,1-4.83,2.32l-18.78-2.69a4.84,4.84,0,0,0-5.47,4.1h0l-4.1,28.68a4.84,4.84,0,0,0,4.1,5.47h0l18.78,2.68a4.83,4.83,0,0,1,2.22,8.64l-15.18,11.39a4.83,4.83,0,0,0-1,6.76l17.38,23.17a4.82,4.82,0,0,0,6.76,1L172.6,135a4.82,4.82,0,0,1,7.67,4.54l-2.68,18.78a4.84,4.84,0,0,0,4.1,5.47h0l28.68,4.1a5.17,5.17,0,0,0,.68,0,4.82,4.82,0,0,0,4.79-4.14L218.52,145a4.83,4.83,0,0,1,8.64-2.22L238.55,158a4.83,4.83,0,0,0,6.76,1l23.17-17.38a4.82,4.82,0,0,0,1-6.76l-11.38-15.18a4.74,4.74,0,0,1-.29-5.36,4.68,4.68,0,0,1,4.83-2.31l18.78,2.68a4.84,4.84,0,0,0,5.47-4.1h0L291,81.84A4.83,4.83,0,0,0,286.86,76.37Zm-160,171.09h38.63v9.66H126.82Zm0,19.31h38.63v4.83a9.66,9.66,0,0,1-9.66,9.66H136.47a9.65,9.65,0,0,1-9.65-9.66ZM88.38,183.51a92,92,0,0,0,8.25,6,23.54,23.54,0,0,1,9.73,12.35L96,212.21,86,205.3a9.65,9.65,0,0,0-13.43,2.47,9.86,9.86,0,0,0-1.5,3.49l-2.53,12.06H57l-2.54-12a9.66,9.66,0,0,0-14.93-6l-10,6.89-8.8-8.78,6.91-10a9.67,9.67,0,0,0-6-14.94l-12-2.53V164.47l12-2.54a9.65,9.65,0,0,0,6-14.9L20.74,137l8.8-8.78,10,6.92a9.64,9.64,0,0,0,14.92-6l.85-4a91.91,91.91,0,0,0,3.83,16.38,29,29,0,1,0,29.2,42Zm-7.5-6.81a19.29,19.29,0,1,1-18.11-25.81H63A91.41,91.41,0,0,0,80.88,176.7ZM278,104.36l-14-2a14.49,14.49,0,0,0-13.64,23l8.49,11.32L243.35,148.3,234.86,137a14.49,14.49,0,0,0-25.93,6.64l-2,14-19.11-2.73,2-14a14.48,14.48,0,0,0-23-13.64l-11.31,8.49L143.92,120.3l11.31-8.48a14.49,14.49,0,0,0-6.64-25.93l-14-2,2.73-19.12,14,2a14.49,14.49,0,0,0,13.64-23l-8.51-11.33L171.9,20.83l8.49,11.31a14.49,14.49,0,0,0,25.93-6.64l2-14,19.12,2.73-2,14a14.48,14.48,0,0,0,23,13.63l11.31-8.48,11.59,15.45-11.31,8.49a14.49,14.49,0,0,0,6.64,25.93l14,2Z"/><path class="cls-3" d="M207.63,45.93a38.63,38.63,0,1,0,38.63,38.63A38.63,38.63,0,0,0,207.63,45.93Zm0,67.6a29,29,0,1,1,29-29A29,29,0,0,1,207.63,113.53Z"/><rect class="cls-4" x="141.3" y="213.66" width="9.66" height="14.49"/><path class="cls-5" d="M125,166.24a57.94,57.94,0,0,1-9.78-103l-5.16-8.17a67.59,67.59,0,0,0,11.44,120.16A30.83,30.83,0,0,1,141.3,204H151A40.39,40.39,0,0,0,125,166.24Z"/><rect class="cls-6" x="237.87" y="179.86" width="33.8" height="9.66"/><rect class="cls-7" x="242.71" y="202.04" width="9.66" height="37.71" transform="translate(-80.63 269.68) rotate(-50.2)"/><rect class="cls-8" x="208.9" y="218.49" width="9.66" height="33.8"/><rect class="cls-9" x="5.51" y="78.46" width="39.81" height="9.65" transform="translate(-19.44 8.65) rotate(-14.03)"/><rect class="cls-10" x="27.83" y="21.48" width="9.65" height="41.53" transform="translate(-20.7 44.27) rotate(-54.46)"/><rect class="cls-11" x="59.11" y="0.57" width="9.66" height="39.87" transform="translate(-3.09 16.48) rotate(-14.34)"/></g></g></g></svg>