<svg xmlns="http://www.w3.org/2000/svg" viewBox="0 0 171.37 168.68"><defs><style>.cls-1{fill:#656d78;}.cls-2{fill:#545c66;}.cls-3{fill:#aab2bd;}.cls-4{fill:#ed5565;}.cls-5{fill:#da4453;}</style></defs><title>bpla</title><g id="Слой_2" data-name="Слой 2"><g id="Слой_1-2" data-name="Слой 1"><path class="cls-1" d="M125.85,107.12H45.52a10.74,10.74,0,0,0-10.71,10.71v26.78a10.74,10.74,0,0,0,10.71,10.71h80.33a10.74,10.74,0,0,0,10.71-10.71V117.83A10.74,10.74,0,0,0,125.85,107.12Z"/><path class="cls-2" d="M136.56,144.61v10.68A10.74,10.74,0,0,1,125.85,166H45.52a10.74,10.74,0,0,1-10.71-10.71V144.61a10.74,10.74,0,0,0,10.71,10.71h80.33A10.74,10.74,0,0,0,136.56,144.61Z"/><circle class="cls-3" cx="58.91" cy="131.22" r="10.71"/><circle class="cls-3" cx="112.46" cy="131.22" r="10.71"/><path class="cls-2" d="M91,67v40.16H80.33V67A5.36,5.36,0,1,1,91,67Z"/><path class="cls-4" d="M155.3,21.44v24.1H128.53V21.44H155.3Z"/><path class="cls-4" d="M109.78,40.18v2.68a5.37,5.37,0,0,1-5.35,5.35H66.94a5.37,5.37,0,0,1-5.35-5.35V40.18H42.84V21.44H61.59a5.37,5.37,0,0,1,5.35-5.36h37.49a5.37,5.37,0,0,1,5.35,5.36h18.75V40.18Z"/><path class="cls-4" d="M42.84,45.54H16.07V21.44H42.84v24.1Z"/><path class="cls-5" d="M42.84,21.44H61.59V40.18H42.84Z"/><path class="cls-5" d="M109.78,21.44h18.75V40.18H109.78Z"/><path d="M42.85,48.2H16.06a2.66,2.66,0,0,1-2.67-2.67V21.42a2.67,2.67,0,0,1,2.67-2.68H42.85a2.67,2.67,0,0,1,2.67,2.68V45.53A2.66,2.66,0,0,1,42.85,48.2ZM18.74,42.85H40.17V24.1H18.74Z"/><path d="M29.45,24.1a2.67,2.67,0,0,1-2.67-2.68V2.68a2.68,2.68,0,1,1,5.35,0V21.42A2.67,2.67,0,0,1,29.45,24.1Z"/><path d="M56.23,8H2.68a2.68,2.68,0,1,1,0-5.35H56.23a2.68,2.68,0,1,1,0,5.35Z"/><path d="M155.31,48.2H128.53a2.67,2.67,0,0,1-2.68-2.67V21.42a2.67,2.67,0,0,1,2.68-2.68h26.78A2.67,2.67,0,0,1,158,21.42V45.53A2.66,2.66,0,0,1,155.31,48.2ZM131.2,42.85h21.43V24.1H131.2Z"/><path d="M141.92,24.1a2.68,2.68,0,0,1-2.68-2.68V2.68a2.68,2.68,0,1,1,5.35,0V21.42A2.67,2.67,0,0,1,141.92,24.1Z"/><path d="M168.69,8H115.14a2.68,2.68,0,1,1,0-5.35h53.55a2.68,2.68,0,1,1,0,5.35Z"/><path d="M61.59,24.1H42.85a2.68,2.68,0,1,1,0-5.36H61.59a2.68,2.68,0,0,1,0,5.36Z"/><path d="M61.59,42.85H42.85a2.68,2.68,0,0,1,0-5.36H61.59a2.68,2.68,0,0,1,0,5.36Z"/><path d="M128.53,24.1H109.78a2.68,2.68,0,0,1,0-5.36h18.75a2.68,2.68,0,0,1,0,5.36Z"/><path d="M128.53,42.85H109.78a2.68,2.68,0,0,1,0-5.36h18.75a2.68,2.68,0,0,1,0,5.36Z"/><path d="M104.43,50.88H66.94a8,8,0,0,1-8-8V40.17a2.68,2.68,0,1,1,5.35,0v2.68a2.68,2.68,0,0,0,2.68,2.68h37.49a2.68,2.68,0,0,0,2.68-2.68V40.17a2.68,2.68,0,1,1,5.35,0v2.68A8,8,0,0,1,104.43,50.88Z"/><path d="M109.78,24.1a2.67,2.67,0,0,1-2.67-2.68,2.68,2.68,0,0,0-2.68-2.68H66.94a2.68,2.68,0,0,0-2.68,2.68,2.68,2.68,0,1,1-5.35,0,8,8,0,0,1,8-8h37.49a8,8,0,0,1,8,8A2.67,2.67,0,0,1,109.78,24.1Z"/><path d="M61.59,42.85a2.68,2.68,0,0,1-2.68-2.68V37.49a2.68,2.68,0,0,1,5.35,0v2.68A2.67,2.67,0,0,1,61.59,42.85Z"/><path d="M61.59,26.78a2.68,2.68,0,0,1-2.68-2.68V21.42a2.68,2.68,0,1,1,5.35,0V24.1A2.67,2.67,0,0,1,61.59,26.78Z"/><path d="M109.78,42.85a2.67,2.67,0,0,1-2.67-2.68V37.49a2.68,2.68,0,0,1,5.35,0v2.68A2.67,2.67,0,0,1,109.78,42.85Z"/><path d="M109.78,26.78a2.67,2.67,0,0,1-2.67-2.68V21.42a2.68,2.68,0,1,1,5.35,0V24.1A2.67,2.67,0,0,1,109.78,26.78Z"/><path d="M96.4,40.17h-21a2.68,2.68,0,1,1,0-5.35h21a2.68,2.68,0,0,1,0,5.35Z"/><path d="M75,21.42a2.67,2.67,0,0,1-2.67-2.68V16.07a2.68,2.68,0,1,1,5.35,0v2.67A2.67,2.67,0,0,1,75,21.42Z"/><path d="M85.69,21.42A2.67,2.67,0,0,1,83,18.74V16.07a2.68,2.68,0,1,1,5.35,0v2.67A2.67,2.67,0,0,1,85.69,21.42Z"/><path d="M96.4,21.42a2.68,2.68,0,0,1-2.68-2.68V16.07a2.68,2.68,0,1,1,5.35,0v2.67A2.67,2.67,0,0,1,96.4,21.42Z"/><path d="M18.74,69.56a2.67,2.67,0,0,1-2.67-2.68V53.49a2.68,2.68,0,0,1,5.35,0V66.88A2.68,2.68,0,0,1,18.74,69.56Z"/><path d="M40.16,69.56a2.67,2.67,0,0,1-2.67-2.68V53.49a2.68,2.68,0,0,1,5.35,0V66.88A2.67,2.67,0,0,1,40.16,69.56Z"/><path d="M29.45,61.53a2.67,2.67,0,0,1-2.67-2.68V53.49a2.68,2.68,0,0,1,5.35,0v5.36A2.67,2.67,0,0,1,29.45,61.53Z"/><path d="M131.21,69.56a2.67,2.67,0,0,1-2.68-2.68V53.49a2.68,2.68,0,0,1,5.35,0V66.88A2.67,2.67,0,0,1,131.21,69.56Z"/><path d="M152.63,69.56A2.68,2.68,0,0,1,150,66.88V53.49a2.68,2.68,0,0,1,5.35,0V66.88A2.67,2.67,0,0,1,152.63,69.56Z"/><path d="M141.92,61.53a2.68,2.68,0,0,1-2.68-2.68V53.49a2.68,2.68,0,0,1,5.35,0v5.36A2.67,2.67,0,0,1,141.92,61.53Z"/><path d="M125.85,158H45.52a13.41,13.41,0,0,1-13.39-13.39V117.83a13.41,13.41,0,0,1,13.39-13.39h80.33a13.41,13.41,0,0,1,13.39,13.39v26.76A13.41,13.41,0,0,1,125.85,158ZM45.52,109.8a8,8,0,0,0-8,8v26.76a8,8,0,0,0,8,8h80.33a8,8,0,0,0,8-8V117.83a8,8,0,0,0-8-8Z"/><path d="M125.85,168.68H45.52a13.4,13.4,0,0,1-13.39-13.39V125.85a2.68,2.68,0,0,1,5.36,0v29.44a8,8,0,0,0,8,8h80.33a8,8,0,0,0,8-8V125.85a2.68,2.68,0,0,1,5.36,0v29.44A13.4,13.4,0,0,1,125.85,168.68Z"/><path d="M58.91,144.6A13.39,13.39,0,1,1,72.3,131.21,13.41,13.41,0,0,1,58.91,144.6Zm0-21.42a8,8,0,1,0,8,8A8,8,0,0,0,58.91,123.18Z"/><path d="M112.46,144.6a13.39,13.39,0,1,1,13.39-13.39A13.4,13.4,0,0,1,112.46,144.6Zm0-21.42a8,8,0,1,0,8,8A8,8,0,0,0,112.46,123.18Z"/><path d="M89.7,128.53h-8a2.68,2.68,0,1,1,0-5.36h8a2.68,2.68,0,1,1,0,5.36Z"/><path d="M81.75,139.24a2.69,2.69,0,0,1-2.69-2.68,2.65,2.65,0,0,1,2.66-2.67h0a2.68,2.68,0,1,1,0,5.35Z"/><path d="M89.78,139.24a2.69,2.69,0,0,1-2.69-2.68,2.65,2.65,0,0,1,2.66-2.67h0a2.68,2.68,0,1,1,0,5.35Z"/><path d="M91,69.61a2.67,2.67,0,0,1-2.68-2.67,2.68,2.68,0,1,0-5.35,0,2.68,2.68,0,0,1-5.36,0,8,8,0,1,1,16.07,0A2.67,2.67,0,0,1,91,69.61Z"/><path d="M91,109.8a2.68,2.68,0,0,1-2.68-2.68V66.94a2.68,2.68,0,0,1,5.36,0v40.18A2.68,2.68,0,0,1,91,109.8Z"/><path d="M80.33,109.78a2.68,2.68,0,0,1-2.68-2.68V66.94a2.68,2.68,0,0,1,5.36,0V107.1A2.68,2.68,0,0,1,80.33,109.78Z"/></g></g></svg>