<svg xmlns="http://www.w3.org/2000/svg" viewBox="0 0 188 188"><defs><style>.cls-1{fill:#a1e42c;}.cls-2{fill:#b9ea6a;}.cls-3{fill:#89c627;}.cls-4{fill:#fcdd2e;}.cls-5{fill:#fbe77b;}</style></defs><title>3d_img</title><g id="Слой_2" data-name="Слой 2"><g id="Слой_1-2" data-name="Слой 1"><path class="cls-1" d="M94,73.23l-57.86-26L94,21.3l57.86,26Z"/><path class="cls-2" d="M36.14,47.26,94,73.23v74.92l-57.86-26Z"/><path class="cls-3" d="M151.86,47.26,94,73.23v74.92l57.86-26Z"/><path class="cls-4" d="M175.78,101.08c-5.23-5.63-12.42-10.55-21.36-14.63-.84-.38-1.69-.75-2.56-1.11v18.51c8.63,5.39,13.73,12,13.73,19.2,0,12.08-14.42,22.63-35.85,28.26l17.61,11.24q3.66-1.35,7.07-2.9c8.94-4.08,16.13-9,21.36-14.63,6.19-6.67,9.47-14.26,9.47-22s-3.28-15.3-9.47-22Z"/><path class="cls-5" d="M128.12,163.48,94,141.72v13.94c-39.54,0-71.59-14.6-71.59-32.61,0-7.18,5.1-13.81,13.73-19.2V85.34c-.87.36-1.72.73-2.56,1.11-8.94,4.08-16.13,9-21.36,14.63-6.19,6.67-9.47,14.27-9.47,22s3.28,15.3,9.47,22c5.23,5.63,12.42,10.55,21.36,14.63C50,167.14,71.49,171.27,94,171.27v14Z"/><path d="M142.58,62.51l-9.65,4.33a2.75,2.75,0,0,0,1.13,5.26,2.67,2.67,0,0,0,1.13-.24l9.64-4.33a2.75,2.75,0,1,0-2.25-5Z"/><path d="M142.58,75.17l-9.65,4.32a2.76,2.76,0,0,0,1.13,5.27,2.83,2.83,0,0,0,1.13-.24l9.64-4.33a2.75,2.75,0,1,0-2.25-5Z"/><path d="M71.5,103.3l-3.63,1.63A2.76,2.76,0,0,0,69,110.2a2.83,2.83,0,0,0,1.13-.24l3.63-1.63a2.76,2.76,0,0,0-2.26-5Z"/><path d="M60,108.46l-3.63,1.63a2.76,2.76,0,0,0,1.13,5.27,2.64,2.64,0,0,0,1.12-.25l3.63-1.63a2.75,2.75,0,1,0-2.25-5Z"/><path d="M48.51,113.62l-3.63,1.63A2.75,2.75,0,0,0,46,120.51a2.67,2.67,0,0,0,1.13-.24l3.63-1.63a2.75,2.75,0,0,0-2.26-5Z"/><path d="M83,98.14l-3.63,1.63a2.76,2.76,0,0,0,2.25,5l3.63-1.63a2.76,2.76,0,0,0-2.25-5Z"/><path d="M143.12,115.25l-3.63-1.63a2.75,2.75,0,0,0-2.26,5l3.63,1.63a2.67,2.67,0,0,0,1.13.24,2.75,2.75,0,0,0,1.13-5.26Z"/><path d="M131.62,110.09,128,108.46a2.75,2.75,0,1,0-2.25,5l3.63,1.63a2.64,2.64,0,0,0,1.12.25,2.76,2.76,0,0,0,1.13-5.27Z"/><path d="M120.13,104.93l-3.63-1.63a2.76,2.76,0,0,0-2.26,5l3.63,1.63a2.83,2.83,0,0,0,1.13.24,2.76,2.76,0,0,0,1.13-5.27Z"/><path d="M108.63,99.77,105,98.14a2.76,2.76,0,1,0-2.25,5l3.63,1.63a2.76,2.76,0,0,0,2.25-5Z"/><path d="M96.75,25.55l14.49,6.5a2.6,2.6,0,0,0,1.12.24A2.75,2.75,0,0,0,113.49,27L95.13,18.79a2.78,2.78,0,0,0-2.26,0L74.51,27a2.75,2.75,0,0,0,2.25,5l14.49-6.5v0a2.75,2.75,0,1,0,5.5,0Z"/><path d="M94,57.18a2.75,2.75,0,0,0-2.75,2.76v4a2.75,2.75,0,0,0,5.5,0v-4A2.75,2.75,0,0,0,94,57.18Z"/><path d="M96.75,47.14a2.75,2.75,0,1,0-5.5,0v4a2.75,2.75,0,1,0,5.5,0Z"/><path d="M96.75,34.34a2.75,2.75,0,1,0-5.5,0v4a2.75,2.75,0,0,0,5.5,0Z"/><path d="M177.8,99.21c-5.48-5.9-13-11-22.24-15.26l-.94-.42V47.24A2.77,2.77,0,0,0,153,44.75L125.28,32.32a2.75,2.75,0,1,0-2.25,5l22.11,9.92L94,70.21,42.86,47.26,65,37.34a2.75,2.75,0,1,0-2.25-5L35,44.75a2.76,2.76,0,0,0-1.63,2.51V83.53l-.94.42c-9.28,4.22-16.76,9.36-22.24,15.26C3.53,106.39,0,114.64,0,123.05s3.53,16.66,10.2,23.84c5.48,5.9,13,11,22.24,15.27C48.57,169.5,69.36,173.68,91.25,174v11.25a2.73,2.73,0,0,0,1.43,2.41,2.75,2.75,0,0,0,2.8-.09l34.13-21.77a2.75,2.75,0,0,0,0-4.64l-23.9-15.24L153,124.7a2.75,2.75,0,0,0,1.63-2.51v-13c4.34,3.49,8.21,8.19,8.21,13.89,0,10.31-13,20.12-33.79,25.6a2.75,2.75,0,0,0-.78,5l17.61,11.24a2.8,2.8,0,0,0,1.48.43,2.9,2.9,0,0,0,1-.17c2.53-.94,5-1.94,7.25-3,9.28-4.23,16.76-9.37,22.24-15.27,6.67-7.18,10.2-15.43,10.2-23.84s-3.53-16.66-10.2-23.84ZM35,124.7l56.24,25.24v2.94c-36.1-.65-66.08-14-66.08-29.83,0-5.7,3.87-10.4,8.21-13.89v13A2.75,2.75,0,0,0,35,124.7Zm61.74,55.52v-8.95A2.75,2.75,0,0,0,94,168.52c-22.12,0-43.17-4-59.27-11.38-8.62-3.92-15.51-8.63-20.49-14-5.71-6.15-8.73-13.1-8.73-20.1s3-13.94,8.73-20.09C19,97.87,25.39,93.38,33.38,89.58v12.77c-9,6-13.72,13.1-13.72,20.7,0,9.85,8,18.93,22.58,25.57,13.87,6.31,32.25,9.79,51.76,9.79a2.75,2.75,0,0,0,2.75-2.75v-8.92L123,163.48Zm3.4-37.85-3.4-2.16V125a2.75,2.75,0,1,0-5.5,0V143.9L38.89,120.41V51.52L91.25,75v37.11a2.75,2.75,0,0,0,5.5,0V75l52.36-23.49v68.89Zm73.61.78c-5,5.36-11.87,10.07-20.49,14-1.77.81-3.65,1.6-5.6,2.34l-11.34-7.23c20.17-6.51,32-17.2,32-29.2,0-7.59-4.74-14.73-13.72-20.7V89.59c8,3.79,14.43,8.29,19.14,13.37,5.71,6.15,8.73,13.09,8.73,20.09s-3,14-8.73,20.1Z"/><path d="M51.29,21.79,63,23.64a2.15,2.15,0,0,0,.43,0,2.76,2.76,0,0,0,.43-5.48l-5.57-.88C67.28,11,80.62,5.51,94,5.51S120.72,11,129.7,17.33l-5.57.87a2.76,2.76,0,0,0,.43,5.48,2.15,2.15,0,0,0,.43,0l11.72-1.84a2.76,2.76,0,0,0,2.3-3.15L137.16,6.92a2.76,2.76,0,0,0-5.45.86l.76,4.76C123.16,6.1,109.17,0,94,0S64.84,6.1,55.53,12.54l.75-4.76a2.75,2.75,0,0,0-5.44-.86L49,18.65a2.75,2.75,0,0,0,.5,2,2.69,2.69,0,0,0,1.8,1.1Z"/></g></g></svg>