<svg xmlns="http://www.w3.org/2000/svg" viewBox="0 0 576 576"><defs><style>.cls-1{opacity:0.19;}.cls-2{fill:#fcdd2e;}.cls-3{fill:#66baed;}.cls-4{fill:#00bdff;}.cls-5{fill:#5a5a6e;}.cls-6{fill:#46465a;}</style></defs><title>back_2</title><g id="Слой_2" data-name="Слой 2"><g id="Слой_1-2" data-name="Слой 1"><g class="cls-1"><path class="cls-2" d="M491.63,164.25H389.25V265.5H141.75V389.25a22.5,22.5,0,0,0,22.5,22.5v79.88A84.38,84.38,0,0,0,248.63,576h78.75a84.38,84.38,0,0,0,84.37-84.37V445.5H311c-9.09,0-16.91-7-17.34-16.06a16.88,16.88,0,0,1,16.86-17.69H491.63A84.38,84.38,0,0,0,576,327.38V248.63A84.38,84.38,0,0,0,491.63,164.25Z"/><path class="cls-2" d="M491.63,164.25H389.25V265.5H288V576h39.38a84.38,84.38,0,0,0,84.37-84.37V445.5H311c-9.09,0-16.91-7-17.34-16.06a16.88,16.88,0,0,1,16.86-17.69H491.63A84.38,84.38,0,0,0,576,327.38V248.63A84.38,84.38,0,0,0,491.63,164.25Z"/><path class="cls-3" d="M209.25,288h157.5a45,45,0,0,0,45-45V84.38A84.47,84.47,0,0,0,327.38,0H248.63a84.47,84.47,0,0,0-84.38,84.38V130.5H265.5a16.88,16.88,0,1,1,0,33.75H84.38A84.47,84.47,0,0,0,0,248.63v78.75a84.47,84.47,0,0,0,84.38,84.37h79.87V333A45,45,0,0,1,209.25,288Z"/><path class="cls-4" d="M327.38,0H288V288h78.75a45,45,0,0,0,45-45V84.38A84.47,84.47,0,0,0,327.38,0Z"/><path class="cls-5" d="M265.5,68.63a16.88,16.88,0,1,1-16.87-16.88A16.87,16.87,0,0,1,265.5,68.63Z"/><path class="cls-6" d="M344.25,507.38a16.88,16.88,0,1,1-16.87-16.88A16.87,16.87,0,0,1,344.25,507.38Z"/></g></g></g></svg>