<svg xmlns="http://www.w3.org/2000/svg" viewBox="0 0 594.65 660"><defs><style>.cls-1{opacity:0.19;}.cls-2{fill:#1e0478;}.cls-3{fill:#6f7ccd;}.cls-4{fill:#9b8ccc;}.cls-5{fill:#94e7ef;}</style></defs><title>back_4</title><g id="Слой_2" data-name="Слой 2"><g id="Слой_1-2" data-name="Слой 1"><g class="cls-1"><path class="cls-2" d="M594.65,255V464.92a14.72,14.72,0,0,1-21.72,13l-95.26-51.27v43.95a14.74,14.74,0,0,1-14.73,14.73H289.15L369,638.46a14.73,14.73,0,1,1-26.12,13.61l-78-149.64-78,149.64a14.73,14.73,0,1,1-26.13-13.61l79.86-153.17H66.75A14.74,14.74,0,0,1,52,470.56V403.68H14.73A14.73,14.73,0,0,1,0,388.94V331a14.73,14.73,0,0,1,14.73-14.74H52V249.4a14.74,14.74,0,0,1,14.73-14.73H80.22A99.54,99.54,0,1,1,227.54,101.09C241.52,43.17,293.77,0,355.93,0,428.75,0,488,59.24,488,132.07a131.88,131.88,0,0,1-49,102.6h23.95a14.74,14.74,0,0,1,14.74,14.73v44l95.25-51.29a14.74,14.74,0,0,1,21.72,13ZM565.18,440.25V279.7l-87.5,47.1v66.36Zm-117,15.58V264.13H81.48v191.7H265s.06,0,.09,0Zm10.33-323.76a102.61,102.61,0,1,0-102.61,102.6A102.73,102.73,0,0,0,458.54,132.07ZM221.48,234.67h51.4a133.2,133.2,0,0,1-29.45-33.5A100,100,0,0,1,221.48,234.67ZM221,164.54a70.13,70.13,0,1,0-70.13,70.13A70.21,70.21,0,0,0,221,164.54ZM52,374.21V345.75H29.47v28.46Z"/><polygon class="cls-3" points="565.18 279.7 565.18 440.25 477.68 393.16 477.68 326.8 565.18 279.7"/><path class="cls-4" d="M448.21,402v53.88H265.12s-.06,0-.09,0H81.48V264.13H448.21V402Zm-47.8-66.25a14.74,14.74,0,1,0-14.74,14.73A14.74,14.74,0,0,0,400.41,335.7Zm0,48.56A14.74,14.74,0,1,0,385.67,399,14.73,14.73,0,0,0,400.41,384.26ZM322.4,399V321a14,14,0,0,0-14-14H148.22a14,14,0,0,0-14,14v78a14,14,0,0,0,14,14H308.4A14,14,0,0,0,322.4,399Z"/><path class="cls-5" d="M355.93,29.46a102.61,102.61,0,1,1-102.6,102.61A102.73,102.73,0,0,1,355.93,29.46Zm64.28,102.61a64.27,64.27,0,1,0-64.28,64.26A64.35,64.35,0,0,0,420.21,132.07Z"/><path class="cls-2" d="M355.93,67.8a64.27,64.27,0,1,1-64.26,64.27A64.35,64.35,0,0,1,355.93,67.8Zm34.81,64.27a34.81,34.81,0,1,0-34.81,34.8A34.85,34.85,0,0,0,390.74,132.07Z"/><path class="cls-2" d="M385.67,321a14.73,14.73,0,1,1-14.73,14.73A14.74,14.74,0,0,1,385.67,321Z"/><path class="cls-2" d="M385.67,369.53a14.73,14.73,0,1,1-14.73,14.73A14.73,14.73,0,0,1,385.67,369.53Z"/><path class="cls-2" d="M322.4,321v78a14,14,0,0,1-14,14H148.22a14,14,0,0,1-14-14V321a14,14,0,0,1,14-14H308.4A14,14,0,0,1,322.4,321Zm-28,64V335H162.22v50Z"/><rect class="cls-3" x="162.22" y="334.96" width="132.19" height="50.03"/><path class="cls-5" d="M150.84,94.42a70.13,70.13,0,1,1-70.12,70.12A70.21,70.21,0,0,1,150.84,94.42Zm44.76,70.12a44.75,44.75,0,1,0-44.76,44.76A44.81,44.81,0,0,0,195.6,164.54Z"/><path class="cls-2" d="M150.84,119.79a44.76,44.76,0,1,1-44.74,44.75A44.81,44.81,0,0,1,150.84,119.79Zm18.24,44.75a18.23,18.23,0,1,0-18.24,18.24A18.27,18.27,0,0,0,169.08,164.54Z"/><rect class="cls-3" x="29.47" y="345.75" width="22.55" height="28.46"/></g></g></g></svg>