<svg xmlns="http://www.w3.org/2000/svg" viewBox="0 0 133.55 133.55"><defs><style>.cls-1{fill:#66baed;}.cls-2{fill:#3d4159;}.cls-3{fill:#f2f0ec;}.cls-4{fill:#854f89;}.cls-5{fill:#dd3033;}.cls-6{fill:#f74f4f;}.cls-7{fill:#f6caae;}.cls-8{fill:#ffe152;}.cls-9{fill:#eab599;}.cls-10{fill:#bf8e75;}.cls-11{fill:#fff;}.cls-12{fill:#2a2f4f;}</style></defs><title>prepod</title><g id="Слой_2" data-name="Слой 2"><g id="Слой_1-2" data-name="Слой 1"><path class="cls-1" d="M133.55,66.77A66.78,66.78,0,1,1,66.77,0,66.78,66.78,0,0,1,133.55,66.77Z"/><path class="cls-2" d="M40.25,0h84.93a8.37,8.37,0,0,1,8.37,8.36v80.1a8.37,8.37,0,0,1-8.37,8.37H40.25a8.36,8.36,0,0,1-8.36-8.37V8.36A8.36,8.36,0,0,1,40.25,0Z"/><path class="cls-3" d="M40.25,91.37a2.91,2.91,0,0,1-2.91-2.91V8.36a2.92,2.92,0,0,1,2.91-2.91h84.93a2.91,2.91,0,0,1,2.91,2.91v80.1a2.91,2.91,0,0,1-2.91,2.91Z"/><path class="cls-4" d="M106.21,72.72a1.9,1.9,0,0,1,2.68-.19L112,75.22l2.69-2.34a1.91,1.91,0,0,1,2.51,2.87l-2.28,2,4,3.45a1.9,1.9,0,0,1,.2,2.69,1.9,1.9,0,0,1-2.69.19L112,80.26l-2.78,2.42a1.87,1.87,0,0,1-1.25.47,1.9,1.9,0,0,1-1.25-3.34l2.36-2.06-2.7-2.34A1.9,1.9,0,0,1,106.21,72.72Z"/><path class="cls-4" d="M98,24a1.91,1.91,0,0,1-.07,2.7,1.88,1.88,0,0,1-1.31.52,1.91,1.91,0,0,1-1.38-.59l-6.93-7.27a1.88,1.88,0,0,1-.51-1.53,1.9,1.9,0,0,1,.83-1.37L97,10.93a1.9,1.9,0,0,1,2.11,3.17l-3.65,2.44c10.73.46,17,5.66,20.35,10.06a27.12,27.12,0,0,1,4.9,10.14A1.9,1.9,0,0,1,119.2,39a1.58,1.58,0,0,1-.38,0A1.89,1.89,0,0,1,117,37.5a23.62,23.62,0,0,0-4.19-8.58c-4.28-5.56-10.42-8.44-18.26-8.59Z"/><path class="cls-4" d="M113.24,57.49a7.4,7.4,0,0,0-2.5,5.54,1.92,1.92,0,0,0,1.91,1.91h11.09a1.91,1.91,0,0,0,1.9-1.91,7.39,7.39,0,0,0-2.49-5.54,7.46,7.46,0,1,0-9.91,0Zm5,1.9a3.64,3.64,0,0,1,3.1,1.74H115.1A3.64,3.64,0,0,1,118.19,59.39Zm0-3.81a3.64,3.64,0,1,1,3.64-3.64A3.64,3.64,0,0,1,118.19,55.58Z"/><path class="cls-4" d="M61.09,82.12,68,78a1.9,1.9,0,0,1,2,0l5.87,3.56L81.67,78a1.9,1.9,0,0,1,2,0l5.87,3.56L95.39,78a1.91,1.91,0,1,1,2,3.26l-6.86,4.16a1.9,1.9,0,0,1-2,0l-5.87-3.56-5.87,3.56a1.9,1.9,0,0,1-2,0l-5.87-3.56-5.87,3.56a1.88,1.88,0,0,1-1,.28,1.91,1.91,0,0,1-1-3.54Z"/><path class="cls-4" d="M87.66,48.74A7.4,7.4,0,0,0,89.84,54l3.92,3.91a1.91,1.91,0,0,0,2.7,0L100.38,54a7.45,7.45,0,1,0-12.72-5.27Zm3.81,0a3.64,3.64,0,1,1,6.21,2.57l-2.57,2.57-2.57-2.57A3.61,3.61,0,0,1,91.47,48.74Z"/><path class="cls-5" d="M80.05,117.26v7.63A66.28,66.28,0,0,1,57,132.83a66.51,66.51,0,0,1-30-12.47,67.51,67.51,0,0,1-11.45-10.83A24.85,24.85,0,0,1,37,92.53c.67,0,1.35-.08,2-.08H55.23a24.78,24.78,0,0,1,24.82,24.81Z"/><path class="cls-6" d="M80.05,117.26v15a67.16,67.16,0,0,1-20.29,1,66.44,66.44,0,0,1-32.83-12.82v-3.1A24.81,24.81,0,0,1,51.75,92.45h3.48a24.7,24.7,0,0,1,15.92,5.78h0a24.84,24.84,0,0,1,8.9,19Z"/><path class="cls-7" d="M22.86,65.09A8.25,8.25,0,1,1,16,57,8.23,8.23,0,0,1,22.86,65.09Z"/><path class="cls-8" d="M53.81,101.4l-6.66,10.69L40.49,101.4"/><path class="cls-8" d="M53,132.12a65.4,65.4,0,0,1-10.88-3.27l5-19.54Z"/><path class="cls-9" d="M22.86,65.09A8.23,8.23,0,0,1,16,73.21,30.83,30.83,0,0,1,16,57,8.23,8.23,0,0,1,22.86,65.09Z"/><path class="cls-9" d="M17.57,65.09a2.94,2.94,0,1,1-2.94-3A2.94,2.94,0,0,1,17.57,65.09Z"/><path class="cls-5" d="M47.15,102.61,36,108.82,32.58,93l6.94-4.09"/><path class="cls-5" d="M47.15,102.61l11.17,6.21L61.72,93l-6.94-4.09"/><path class="cls-7" d="M71.43,65.09A8.26,8.26,0,1,0,78.35,57,8.24,8.24,0,0,0,71.43,65.09Z"/><path class="cls-9" d="M71.43,65.09a8.24,8.24,0,0,0,6.92,8.12,30.83,30.83,0,0,0,0-16.25A8.24,8.24,0,0,0,71.43,65.09Z"/><path class="cls-9" d="M82.61,65.09a2.95,2.95,0,1,1-2.94-3A2.94,2.94,0,0,1,82.61,65.09Z"/><path class="cls-9" d="M77.78,60.71a30.63,30.63,0,0,1-61.26,0c0-8,5.84-20,10.87-25.48,5.6-6.08,10.85-5.15,19.76-5.15A30.58,30.58,0,0,1,77.78,60.71Z"/><path class="cls-9" d="M56,82.89V93.76a8.85,8.85,0,0,1-17.7,0V82.89Z"/><path class="cls-7" d="M56,93.07v.69a8.83,8.83,0,0,1-6.23,8.45,8.86,8.86,0,0,1-6.17-7.3c.6,0,1.19,0,1.79,0a30.5,30.5,0,0,0,4.91-.39A29.85,29.85,0,0,0,56,93.07Z"/><path class="cls-7" d="M77.78,60.71A30.64,30.64,0,0,1,52.07,91a30.64,30.64,0,0,1,0-60.48A30.64,30.64,0,0,1,77.63,57.66C77.73,58.66,77.78,59.68,77.78,60.71Z"/><path class="cls-10" d="M47.15,77.16a15.43,15.43,0,0,1-7.47-1.93A1.36,1.36,0,1,1,41,72.84a12.71,12.71,0,0,0,12.31,0,1.37,1.37,0,0,1,1.32,2.39A15.46,15.46,0,0,1,47.15,77.16Z"/><path class="cls-2" d="M40.63,58.93a3.48,3.48,0,1,1-3.48-3.48A3.47,3.47,0,0,1,40.63,58.93Z"/><path class="cls-2" d="M60.62,58.93a3.48,3.48,0,1,1-3.47-3.48A3.47,3.47,0,0,1,60.62,58.93Z"/><path class="cls-11" d="M39.92,58.31a1.49,1.49,0,1,1-1.49-1.49A1.49,1.49,0,0,1,39.92,58.31Z"/><path class="cls-11" d="M60.08,58.31a1.49,1.49,0,1,1-1.48-1.49A1.48,1.48,0,0,1,60.08,58.31Z"/><path class="cls-10" d="M50.62,67.68H43.67a1.5,1.5,0,0,1,0-3h6.95a1.5,1.5,0,1,1,0,3Z"/><path class="cls-5" d="M57.23,116.45H70.59v4.09H57.23Z"/><path class="cls-12" d="M45.36,21.33a18.56,18.56,0,0,1,17.2,17.59l.09,1.77H68l2.88,19.12,7-2.15-.93-18.74A18.56,18.56,0,0,0,58.28,21.28Z"/><path class="cls-2" d="M76.3,13.93A18.92,18.92,0,0,1,49.54,40.69Z"/><path class="cls-2" d="M49.54,40.69H26.32L23.44,59.81l-7-2.15.93-18.74A18.56,18.56,0,0,1,36,21.28l33.54.12,4.44,8"/><path class="cls-12" d="M48.94,21.33a18.56,18.56,0,0,0-17.2,17.59l-.09,1.77H26.31L23.44,59.81l-7-2.15.94-18.74A18.56,18.56,0,0,1,36,21.28Z"/><path class="cls-5" d="M59.76,133.18c4-7.63,13.77-28.09,11.39-34.95a24.7,24.7,0,0,1,6.16,7.71Z"/><path class="cls-2" d="M99.11,64.8l-33.5,68.73q-3,0-5.85-.35L96.15,63.3a1.66,1.66,0,0,1,3,1.5Z"/></g></g></svg>