<svg xmlns="http://www.w3.org/2000/svg" xmlns:xlink="http://www.w3.org/1999/xlink" viewBox="0 0 571.92 384.99"><defs><style>.cls-1{fill:url(#Безымянный_градиент_33);}.cls-2{fill:#fff;}</style><linearGradient id="Безымянный_градиент_33" y1="193.66" x2="570.97" y2="193.66" gradientUnits="userSpaceOnUse"><stop offset="0" stop-color="#aaffa9"/><stop offset="1" stop-color="#11ffbd"/></linearGradient></defs><title>Ресурс 17</title><g id="Слой_2" data-name="Слой 2"><g id="Слой_1-2" data-name="Слой 1"><rect class="cls-1" y="3.66" width="570.97" height="380" rx="12" ry="12"/><path class="cls-2" d="M80.93,96.8A50,50,0,0,1,57,102.73,50.41,50.41,0,0,1,31.2,95.87,51.32,51.32,0,0,1,12.49,77.22,49.93,49.93,0,0,1,5.56,51.44a50.26,50.26,0,0,1,6.86-25.79A51.25,51.25,0,0,1,31.06,6.93,49.72,49.72,0,0,1,56.71,0,51.6,51.6,0,0,1,80.85,5.79,49.26,49.26,0,0,1,99,21.72L76.85,37.43a24,24,0,0,0-8.5-7.5A25.15,25.15,0,0,0,57,27a23.71,23.71,0,0,0-12.28,3.29,24.25,24.25,0,0,0-12,21A23.74,23.74,0,0,0,36,63.58a24.67,24.67,0,0,0,8.86,8.86A23.46,23.46,0,0,0,57,75.72,25.19,25.19,0,0,0,68.28,72.8a24.37,24.37,0,0,0,8.57-7.36L99.14,80.87A52.43,52.43,0,0,1,80.93,96.8Z"/><path class="cls-2" d="M184.73,74.72q9.86,12,24.14,26.72H173.15a153.3,153.3,0,0,1-16.57-18.5,113.34,113.34,0,0,1-12.86-20.07h-3.57v38.57H113V1.43h27.15V38.58h3.57L170.3,1.43h31.43l-34.15,49A194.68,194.68,0,0,0,184.73,74.72Z"/><path class="cls-2" d="M234.52,95.94A51.85,51.85,0,0,1,215.8,77.22a49.93,49.93,0,0,1-6.93-25.78,49.94,49.94,0,0,1,6.93-25.79A51.85,51.85,0,0,1,234.52,6.93a51.45,51.45,0,0,1,51.58,0,51.9,51.9,0,0,1,18.71,18.72,49.94,49.94,0,0,1,6.93,25.79,49.93,49.93,0,0,1-6.93,25.78A51.9,51.9,0,0,1,286.1,95.94a51.45,51.45,0,0,1-51.58,0Zm37.93-23.5a24.67,24.67,0,0,0,8.86-8.86,24.06,24.06,0,0,0,0-24.29,24.75,24.75,0,0,0-8.86-8.86,24.12,24.12,0,0,0-24.29,0,24.83,24.83,0,0,0-8.86,8.86,24.12,24.12,0,0,0,0,24.29,24.75,24.75,0,0,0,8.86,8.86,24.12,24.12,0,0,0,24.29,0Z"/><path class="cls-2" d="M389.68,6.22a35.4,35.4,0,0,1,13,13,35,35,0,0,1,4.79,17.93,35,35,0,0,1-4.79,17.93,35.4,35.4,0,0,1-13,13,35,35,0,0,1-17.93,4.79H356v28.57H328.89V1.43h42.86A34.9,34.9,0,0,1,389.68,6.22ZM377,45.22a11.4,11.4,0,0,0,0-16.14,11,11,0,0,0-8.08-3.36H356V48.58h12.86A11,11,0,0,0,377,45.22Z"/><path class="cls-2" d="M450.26,95.94a51.85,51.85,0,0,1-18.72-18.72,49.93,49.93,0,0,1-6.93-25.78,49.94,49.94,0,0,1,6.93-25.79A51.85,51.85,0,0,1,450.26,6.93a51.45,51.45,0,0,1,51.58,0,51.92,51.92,0,0,1,18.72,18.72,49.94,49.94,0,0,1,6.93,25.79,49.93,49.93,0,0,1-6.93,25.78,51.92,51.92,0,0,1-18.72,18.72,51.45,51.45,0,0,1-51.58,0Zm37.93-23.5a24.67,24.67,0,0,0,8.86-8.86,24.06,24.06,0,0,0,0-24.29,24.75,24.75,0,0,0-8.86-8.86,24.11,24.11,0,0,0-24.28,0,24.75,24.75,0,0,0-8.86,8.86,24.06,24.06,0,0,0,0,24.29,24.67,24.67,0,0,0,8.86,8.86,24.11,24.11,0,0,0,24.28,0Z"/><path class="cls-2" d="M554.77,71.44a17.28,17.28,0,0,0-9,2.57,21.23,21.23,0,0,0-7,6.79,16.43,16.43,0,0,0-2.71,9.07,12.53,12.53,0,0,0,3.78,9.21,12.71,12.71,0,0,0,9.36,3.79,17.67,17.67,0,0,0,9.08-2.57,21.07,21.07,0,0,0,7.07-6.79,16.2,16.2,0,0,0,2.71-8.93,12.8,12.8,0,0,0-3.71-9.43A13,13,0,0,0,554.77,71.44Z"/><polygon class="cls-2" points="571.92 1.43 552.77 1.43 543.2 64.29 568.92 64.29 571.92 49.11 571.92 1.43"/><path class="cls-2" d="M80.93,206.8A50,50,0,0,1,57,212.73a50.41,50.41,0,0,1-25.79-6.86,51.32,51.32,0,0,1-18.71-18.65,51.66,51.66,0,0,1-.07-51.57,51.25,51.25,0,0,1,18.64-18.72A49.72,49.72,0,0,1,56.71,110a51.6,51.6,0,0,1,24.14,5.79A49.26,49.26,0,0,1,99,131.72L76.85,147.43a24,24,0,0,0-8.5-7.5A25.15,25.15,0,0,0,57,137a23.71,23.71,0,0,0-12.28,3.29,24.25,24.25,0,0,0-12,21A23.74,23.74,0,0,0,36,173.58a24.67,24.67,0,0,0,8.86,8.86A23.46,23.46,0,0,0,57,185.72a25.19,25.19,0,0,0,11.29-2.92,24.37,24.37,0,0,0,8.57-7.36l22.29,15.43A52.43,52.43,0,0,1,80.93,206.8Z"/><path class="cls-2" d="M184.73,184.72q9.86,12,24.14,26.72H173.15a153.3,153.3,0,0,1-16.57-18.5,113.34,113.34,0,0,1-12.86-20.07h-3.57v38.57H113v-100h27.15v37.15h3.57l26.58-37.15h31.43l-34.15,49A194.68,194.68,0,0,0,184.73,184.72Z"/><path class="cls-2" d="M234.52,205.94a51.85,51.85,0,0,1-18.72-18.72,51.44,51.44,0,0,1,0-51.57,51.85,51.85,0,0,1,18.72-18.72,51.45,51.45,0,0,1,51.58,0,51.9,51.9,0,0,1,18.71,18.72,51.44,51.44,0,0,1,0,51.57,51.9,51.9,0,0,1-18.71,18.72,51.45,51.45,0,0,1-51.58,0Zm37.93-23.5a24.67,24.67,0,0,0,8.86-8.86,24.06,24.06,0,0,0,0-24.29,24.75,24.75,0,0,0-8.86-8.86,24.12,24.12,0,0,0-24.29,0,24.83,24.83,0,0,0-8.86,8.86,24.12,24.12,0,0,0,0,24.29,24.75,24.75,0,0,0,8.86,8.86,24.12,24.12,0,0,0,24.29,0Z"/><path class="cls-2" d="M389.68,116.22a35.4,35.4,0,0,1,13,13,36,36,0,0,1,0,35.86,35.4,35.4,0,0,1-13,13,35,35,0,0,1-17.93,4.79H356v28.57H328.89v-100h42.86A34.9,34.9,0,0,1,389.68,116.22Zm-12.71,39a11.43,11.43,0,0,0-8.08-19.5H356v22.86h12.86A11,11,0,0,0,377,155.22Z"/><path class="cls-2" d="M450.26,205.94a51.85,51.85,0,0,1-18.72-18.72,51.44,51.44,0,0,1,0-51.57,51.85,51.85,0,0,1,18.72-18.72,51.45,51.45,0,0,1,51.58,0,51.92,51.92,0,0,1,18.72,18.72,51.44,51.44,0,0,1,0,51.57,51.92,51.92,0,0,1-18.72,18.72,51.45,51.45,0,0,1-51.58,0Zm37.93-23.5a24.67,24.67,0,0,0,8.86-8.86,24.06,24.06,0,0,0,0-24.29,24.75,24.75,0,0,0-8.86-8.86,24.11,24.11,0,0,0-24.28,0,24.75,24.75,0,0,0-8.86,8.86,24.06,24.06,0,0,0,0,24.29,24.67,24.67,0,0,0,8.86,8.86,24.11,24.11,0,0,0,24.28,0Z"/><path class="cls-2" d="M554.77,181.44a17.28,17.28,0,0,0-9,2.57,21.23,21.23,0,0,0-7,6.79,16.43,16.43,0,0,0-2.71,9.07,12.53,12.53,0,0,0,3.78,9.21,12.71,12.71,0,0,0,9.36,3.79,17.67,17.67,0,0,0,9.08-2.57,21.07,21.07,0,0,0,7.07-6.79,16.2,16.2,0,0,0,2.71-8.93,12.8,12.8,0,0,0-3.71-9.43A13,13,0,0,0,554.77,181.44Z"/><polygon class="cls-2" points="571.92 111.43 552.77 111.43 543.2 174.29 568.92 174.29 571.92 159.11 571.92 111.43"/><path class="cls-2" d="M80.93,315.8A50,50,0,0,1,57,321.73a50.41,50.41,0,0,1-25.79-6.86,51.32,51.32,0,0,1-18.71-18.65,51.66,51.66,0,0,1-.07-51.57,51.25,51.25,0,0,1,18.64-18.72A49.72,49.72,0,0,1,56.71,219a51.6,51.6,0,0,1,24.14,5.79A49.26,49.26,0,0,1,99,240.72L76.85,256.43a24,24,0,0,0-8.5-7.5A25.15,25.15,0,0,0,57,246a23.71,23.71,0,0,0-12.28,3.29,24.25,24.25,0,0,0-12,21A23.74,23.74,0,0,0,36,282.58a24.67,24.67,0,0,0,8.86,8.86A23.46,23.46,0,0,0,57,294.72a25.19,25.19,0,0,0,11.29-2.92,24.37,24.37,0,0,0,8.57-7.36l22.29,15.43A52.43,52.43,0,0,1,80.93,315.8Z"/><path class="cls-2" d="M184.73,293.72q9.86,12,24.14,26.72H173.15a153.3,153.3,0,0,1-16.57-18.5,113.34,113.34,0,0,1-12.86-20.07h-3.57v38.57H113v-100h27.15v37.15h3.57l26.58-37.15h31.43l-34.15,49A194.68,194.68,0,0,0,184.73,293.72Z"/><path class="cls-2" d="M234.52,314.94a51.85,51.85,0,0,1-18.72-18.72,51.44,51.44,0,0,1,0-51.57,51.85,51.85,0,0,1,18.72-18.72,51.45,51.45,0,0,1,51.58,0,51.9,51.9,0,0,1,18.71,18.72,51.44,51.44,0,0,1,0,51.57,51.9,51.9,0,0,1-18.71,18.72,51.45,51.45,0,0,1-51.58,0Zm37.93-23.5a24.67,24.67,0,0,0,8.86-8.86,24.06,24.06,0,0,0,0-24.29,24.75,24.75,0,0,0-8.86-8.86,24.12,24.12,0,0,0-24.29,0,24.83,24.83,0,0,0-8.86,8.86,24.12,24.12,0,0,0,0,24.29,24.75,24.75,0,0,0,8.86,8.86,24.12,24.12,0,0,0,24.29,0Z"/><path class="cls-2" d="M389.68,225.22a35.4,35.4,0,0,1,13,13,36,36,0,0,1,0,35.86,35.4,35.4,0,0,1-13,13,35,35,0,0,1-17.93,4.79H356v28.57H328.89v-100h42.86A34.9,34.9,0,0,1,389.68,225.22Zm-12.71,39a11.43,11.43,0,0,0-8.08-19.5H356v22.86h12.86A11,11,0,0,0,377,264.22Z"/><path class="cls-2" d="M450.26,314.94a51.85,51.85,0,0,1-18.72-18.72,51.44,51.44,0,0,1,0-51.57,51.85,51.85,0,0,1,18.72-18.72,51.45,51.45,0,0,1,51.58,0,51.92,51.92,0,0,1,18.72,18.72,51.44,51.44,0,0,1,0,51.57,51.92,51.92,0,0,1-18.72,18.72,51.45,51.45,0,0,1-51.58,0Zm37.93-23.5a24.67,24.67,0,0,0,8.86-8.86,24.06,24.06,0,0,0,0-24.29,24.75,24.75,0,0,0-8.86-8.86,24.11,24.11,0,0,0-24.28,0,24.75,24.75,0,0,0-8.86,8.86,24.06,24.06,0,0,0,0,24.29,24.67,24.67,0,0,0,8.86,8.86,24.11,24.11,0,0,0,24.28,0Z"/><path class="cls-2" d="M554.77,290.44a17.28,17.28,0,0,0-9,2.57,21.23,21.23,0,0,0-7,6.79,16.43,16.43,0,0,0-2.71,9.07,12.53,12.53,0,0,0,3.78,9.21,12.71,12.71,0,0,0,9.36,3.79,17.67,17.67,0,0,0,9.08-2.57,21.07,21.07,0,0,0,7.07-6.79,16.2,16.2,0,0,0,2.71-8.93,12.8,12.8,0,0,0-3.71-9.43A13,13,0,0,0,554.77,290.44Z"/><polygon class="cls-2" points="571.92 220.43 552.77 220.43 543.2 283.29 568.92 283.29 571.92 268.11 571.92 220.43"/><path class="cls-2" d="M33,385a24.87,24.87,0,0,1-.28-3.7A24.19,24.19,0,0,1,57,357a25.15,25.15,0,0,1,11.36,2.93,24,24,0,0,1,8.5,7.5L99,351.72a49.26,49.26,0,0,0-18.15-15.93A51.6,51.6,0,0,0,56.71,330a49.72,49.72,0,0,0-25.65,6.93,51.25,51.25,0,0,0-18.64,18.72,50.26,50.26,0,0,0-6.86,25.79c0,1.19,0,2.38.11,3.55Z"/><path class="cls-2" d="M170.39,385c-1-1.52-1.91-3-2.81-4.55l34.15-49H170.3l-26.58,37.15h-3.57V331.43H113V385Z"/><path class="cls-2" d="M236.28,385a24.42,24.42,0,0,1-.26-3.55,23.52,23.52,0,0,1,3.28-12.15,24.83,24.83,0,0,1,8.86-8.86,24.12,24.12,0,0,1,24.29,0,24.75,24.75,0,0,1,8.86,8.86,23.53,23.53,0,0,1,3.29,12.15,25.9,25.9,0,0,1-.26,3.55h27.29c.07-1.17.11-2.36.11-3.55a49.94,49.94,0,0,0-6.93-25.79,51.9,51.9,0,0,0-18.71-18.72,51.45,51.45,0,0,0-51.58,0,51.85,51.85,0,0,0-18.72,18.72,49.94,49.94,0,0,0-6.93,25.79c0,1.19,0,2.38.12,3.55Z"/><path class="cls-2" d="M402.73,385a35.95,35.95,0,0,0-.05-35.77,35.4,35.4,0,0,0-13-13,34.9,34.9,0,0,0-17.93-4.79H328.89V385ZM356,355.72h12.86a11.43,11.43,0,0,1,0,22.86H356Z"/><path class="cls-2" d="M452,385a24.42,24.42,0,0,1-.26-3.55,23.43,23.43,0,0,1,3.29-12.15,24.75,24.75,0,0,1,8.86-8.86,24.11,24.11,0,0,1,24.28,0,24.75,24.75,0,0,1,8.86,8.86,23.53,23.53,0,0,1,3.29,12.15,24.42,24.42,0,0,1-.26,3.55h27.29c.07-1.17.12-2.36.12-3.55a49.94,49.94,0,0,0-6.93-25.79,51.92,51.92,0,0,0-18.72-18.72,51.45,51.45,0,0,0-51.58,0,51.85,51.85,0,0,0-18.72,18.72,49.94,49.94,0,0,0-6.93,25.79c0,1.19.05,2.38.12,3.55Z"/><polygon class="cls-2" points="571.92 331.43 552.77 331.43 544.62 384.99 570.76 384.99 571.92 379.11 571.92 331.43"/></g></g></svg>