<svg xmlns="http://www.w3.org/2000/svg" viewBox="0 0 572 127"><defs><style>.cls-1{fill:#353535;opacity:0.79;}.cls-2{font-size:30px;fill:#fff;font-family:FETHEPROFESSIONAL-Regular, FE THE PROFESSIONAL;}.cls-3{letter-spacing:-0.02em;}.cls-4{letter-spacing:-0.04em;}.cls-5{letter-spacing:-0.08em;}.cls-6{letter-spacing:-0.02em;}.cls-7{letter-spacing:-0.04em;}.cls-8{letter-spacing:-0.06em;}.cls-9{letter-spacing:0em;}.cls-10{letter-spacing:-0.02em;}.cls-11{letter-spacing:0.04em;}.cls-12{letter-spacing:-0.16em;}.cls-13{letter-spacing:-0.04em;}</style></defs><title>maket_2</title><g id="Слой_2" data-name="Слой 2"><g id="Слой_1-2" data-name="Слой 1"><path class="cls-1" d="M131,336V454.76c0,4.53,5.08,8.24,11.29,8.24H691.71c6.21,0,11.29-3.71,11.29-8.24V336Z" transform="translate(-131 -336)"/><text class="cls-2" transform="translate(14 54)">ИН<tspan class="cls-3" x="49.2" y="0">Т</tspan><tspan x="66.9" y="0">Е</tspan><tspan class="cls-4" x="86.7" y="0">Р</tspan><tspan x="106.8" y="0">А</tspan><tspan class="cls-5" x="127.8" y="0">К</tspan><tspan class="cls-6" x="151.53" y="0">Т</tspan><tspan x="169.23" y="0">ИВНАЯ </tspan><tspan class="cls-7" x="292.53" y="0">К</tspan><tspan x="317.46" y="0">АР</tspan><tspan class="cls-8" x="359.76" y="0">Т</tspan><tspan class="cls-9" x="376.26" y="0">А </tspan><tspan class="cls-10" x="0" y="36">СУ</tspan><tspan x="42.36" y="36">Р</tspan><tspan class="cls-11" x="63.66" y="36">ГУ</tspan><tspan class="cls-7" x="104.16" y="36">ТС</tspan><tspan class="cls-12" x="142.62" y="36">К</tspan><tspan class="cls-13" x="163.95" y="36">ОГ</tspan><tspan x="203.85" y="36">О </tspan><tspan class="cls-7" x="238.05" y="36">Р</tspan><tspan x="258.15" y="36">А</tspan><tspan class="cls-7" x="279.15" y="36">ЙО</tspan><tspan x="325.95" y="36">НА</tspan></text></g></g></svg>