<svg xmlns="http://www.w3.org/2000/svg" viewBox="0 0 196 196"><defs><style>.cls-1{fill:#fcdd2e;}.cls-2{fill:#66baed;}.cls-3{fill:#00bdff;}.cls-4{fill:#5a5a6e;}.cls-5{fill:#46465a;}</style></defs><title>python</title><g id="Слой_2" data-name="Слой 2"><g id="Слой_1-2" data-name="Слой 1"><path class="cls-1" d="M167.29,55.89H132.45V90.34H48.23v42.11a7.66,7.66,0,0,0,7.66,7.66v27.18A28.71,28.71,0,0,0,84.6,196h26.8a28.71,28.71,0,0,0,28.71-28.71v-15.7H105.82a5.85,5.85,0,0,1-5.9-5.46,5.74,5.74,0,0,1,5.74-6h61.63A28.71,28.71,0,0,0,196,111.4V84.6A28.71,28.71,0,0,0,167.29,55.89Z"/><path class="cls-1" d="M167.29,55.89H132.45V90.34H98V196h13.4a28.71,28.71,0,0,0,28.71-28.71v-15.7H105.82a5.85,5.85,0,0,1-5.9-5.46,5.74,5.74,0,0,1,5.74-6h61.63A28.71,28.71,0,0,0,196,111.4V84.6A28.71,28.71,0,0,0,167.29,55.89Z"/><path class="cls-2" d="M71.2,98h53.6a15.32,15.32,0,0,0,15.31-15.31v-54A28.74,28.74,0,0,0,111.4,0H84.6A28.74,28.74,0,0,0,55.89,28.71v15.7H90.34a5.74,5.74,0,1,1,0,11.48H28.71A28.74,28.74,0,0,0,0,84.6v26.8a28.74,28.74,0,0,0,28.71,28.71H55.89v-26.8A15.32,15.32,0,0,1,71.2,98Z"/><path class="cls-3" d="M111.4,0H98V98h26.8a15.32,15.32,0,0,0,15.31-15.31v-54A28.74,28.74,0,0,0,111.4,0Z"/><path class="cls-4" d="M90.34,23.35a5.74,5.74,0,1,1-5.74-5.74A5.74,5.74,0,0,1,90.34,23.35Z"/><path class="cls-5" d="M117.14,172.65a5.74,5.74,0,1,1-5.74-5.74A5.74,5.74,0,0,1,117.14,172.65Z"/></g></g></svg>