<svg xmlns="http://www.w3.org/2000/svg" viewBox="0 0 578.83 569.75"><defs><style>.cls-1{opacity:0.19;}.cls-2{fill:#656d78;}.cls-3{fill:#545c66;}.cls-4{fill:#aab2bd;}.cls-5{fill:#ed5565;}.cls-6{fill:#da4453;}</style></defs><title>back_3</title><g id="Слой_2" data-name="Слой 2"><g id="Слой_1-2" data-name="Слой 1"><g class="cls-1"><path class="cls-2" d="M425.08,361.82H153.75A36.29,36.29,0,0,0,117.57,398v90.44a36.29,36.29,0,0,0,36.18,36.18H425.08a36.28,36.28,0,0,0,36.17-36.18V398A36.28,36.28,0,0,0,425.08,361.82Z"/><path class="cls-3" d="M461.25,488.44v36.09a36.28,36.28,0,0,1-36.17,36.17H153.75a36.28,36.28,0,0,1-36.18-36.17V488.44a36.29,36.29,0,0,0,36.18,36.18H425.08A36.28,36.28,0,0,0,461.25,488.44Z"/><circle class="cls-4" cx="198.97" cy="443.22" r="36.18"/><circle class="cls-4" cx="379.86" cy="443.22" r="36.18"/><path class="cls-3" d="M307.5,226.16V361.82H271.33V226.16a18.09,18.09,0,1,1,36.17,0Z"/><path class="cls-5" d="M524.56,72.41v81.4H434.12V72.41h90.44Z"/><path class="cls-5" d="M370.81,135.72v9a18.14,18.14,0,0,1-18.09,18.09H226.1A18.14,18.14,0,0,1,208,144.76v-9H144.71V72.41H208A18.14,18.14,0,0,1,226.1,54.32H352.72a18.14,18.14,0,0,1,18.09,18.09h63.31v63.31Z"/><path class="cls-5" d="M144.71,153.81H54.27V72.41h90.44v81.4Z"/><path class="cls-6" d="M144.71,72.41H208v63.31H144.71Z"/><path class="cls-6" d="M370.81,72.41h63.31v63.31H370.81Z"/><path d="M144.72,162.81H54.26a9,9,0,0,1-9-9V72.35a9,9,0,0,1,9-9h90.46a9,9,0,0,1,9,9v81.42A9,9,0,0,1,144.72,162.81ZM63.3,144.73h72.37V81.4H63.3Z"/><path d="M99.49,81.4a9,9,0,0,1-9-9.05V9a9,9,0,0,1,18.09,0V72.35A9,9,0,0,1,99.49,81.4Z"/><path d="M189.93,27.13H9A9,9,0,0,1,9,9H189.93a9,9,0,0,1,0,18.09Z"/><path d="M524.57,162.81H434.11a9,9,0,0,1-9-9V72.35a9,9,0,0,1,9-9h90.46a9,9,0,0,1,9,9v81.42A9,9,0,0,1,524.57,162.81Zm-81.41-18.08h72.37V81.4H443.16Z"/><path d="M479.34,81.4a9,9,0,0,1-9-9.05V9a9,9,0,0,1,18.09,0V72.35A9,9,0,0,1,479.34,81.4Z"/><path d="M569.78,27.13H388.9A9,9,0,0,1,388.9,9H569.78a9,9,0,1,1,0,18.09Z"/><path d="M208,81.4h-63.3a9,9,0,1,1,0-18.09H208a9,9,0,0,1,0,18.09Z"/><path d="M208,144.73h-63.3a9,9,0,1,1,0-18.09H208a9,9,0,0,1,0,18.09Z"/><path d="M434.11,81.4h-63.3a9,9,0,0,1,0-18.09h63.3a9,9,0,1,1,0,18.09Z"/><path d="M434.11,144.73h-63.3a9,9,0,0,1,0-18.09h63.3a9,9,0,1,1,0,18.09Z"/><path d="M352.72,171.86H226.1A27.17,27.17,0,0,1,199,144.73v-9a9,9,0,0,1,18.09,0v9a9,9,0,0,0,9,9H352.72a9,9,0,0,0,9-9v-9a9,9,0,0,1,18.09,0v9A27.18,27.18,0,0,1,352.72,171.86Z"/><path d="M370.81,81.4a9,9,0,0,1-9-9.05,9,9,0,0,0-9-9H226.1a9,9,0,0,0-9,9,9,9,0,1,1-18.09,0A27.17,27.17,0,0,1,226.1,45.22H352.72a27.17,27.17,0,0,1,27.14,27.13A9,9,0,0,1,370.81,81.4Z"/><path d="M208,144.73a9,9,0,0,1-9.05-9v-9a9,9,0,1,1,18.09,0v9A9,9,0,0,1,208,144.73Z"/><path d="M208,90.44a9,9,0,0,1-9.05-9V72.35a9,9,0,0,1,18.09,0V81.4A9,9,0,0,1,208,90.44Z"/><path d="M370.81,144.73a9,9,0,0,1-9-9v-9a9,9,0,1,1,18.09,0v9A9,9,0,0,1,370.81,144.73Z"/><path d="M370.81,90.44a9,9,0,0,1-9-9V72.35a9,9,0,0,1,18.09,0V81.4A9,9,0,0,1,370.81,90.44Z"/><path d="M325.59,135.68H254.65a9,9,0,1,1,0-18.09h70.94a9,9,0,1,1,0,18.09Z"/><path d="M253.24,72.35a9,9,0,0,1-9.05-9v-9a9,9,0,1,1,18.09,0v9A9,9,0,0,1,253.24,72.35Z"/><path d="M289.41,72.35a9,9,0,0,1-9-9v-9a9,9,0,1,1,18.09,0v9A9,9,0,0,1,289.41,72.35Z"/><path d="M325.59,72.35a9,9,0,0,1-9-9v-9a9,9,0,1,1,18.09,0v9A9,9,0,0,1,325.59,72.35Z"/><path d="M63.31,235a9,9,0,0,1-9-9V180.69a9,9,0,1,1,18.08,0v45.22A9,9,0,0,1,63.31,235Z"/><path d="M135.66,235a9,9,0,0,1-9-9V180.69a9,9,0,1,1,18.09,0v45.22A9,9,0,0,1,135.66,235Z"/><path d="M99.49,207.82a9,9,0,0,1-9-9V180.69a9,9,0,1,1,18.09,0v18.08A9,9,0,0,1,99.49,207.82Z"/><path d="M443.17,235a9,9,0,0,1-9.05-9V180.69a9,9,0,1,1,18.09,0v45.22A9,9,0,0,1,443.17,235Z"/><path d="M515.52,235a9,9,0,0,1-9-9V180.69a9,9,0,1,1,18.08,0v45.22A9,9,0,0,1,515.52,235Z"/><path d="M479.34,207.82a9,9,0,0,1-9-9V180.69a9,9,0,1,1,18.09,0v18.08A9,9,0,0,1,479.34,207.82Z"/><path d="M425.08,533.6H153.75a45.28,45.28,0,0,1-45.22-45.22V398a45.28,45.28,0,0,1,45.22-45.22H425.08A45.28,45.28,0,0,1,470.3,398v90.4A45.28,45.28,0,0,1,425.08,533.6ZM153.75,370.85A27.16,27.16,0,0,0,126.62,398v90.4a27.16,27.16,0,0,0,27.13,27.13H425.08a27.16,27.16,0,0,0,27.13-27.13V398a27.16,27.16,0,0,0-27.13-27.13Z"/><path d="M425.08,569.75H153.75a45.28,45.28,0,0,1-45.22-45.22V425.08a9,9,0,1,1,18.09,0v99.45a27.16,27.16,0,0,0,27.13,27.13H425.08a27.16,27.16,0,0,0,27.13-27.13V425.08a9,9,0,1,1,18.09,0v99.45A45.28,45.28,0,0,1,425.08,569.75Z"/><path d="M199,488.4a45.23,45.23,0,1,1,45.23-45.23A45.27,45.27,0,0,1,199,488.4ZM199,416a27.14,27.14,0,1,0,27.14,27.13A27.16,27.16,0,0,0,199,416Z"/><path d="M379.84,488.4a45.23,45.23,0,1,1,45.23-45.23A45.26,45.26,0,0,1,379.84,488.4Zm0-72.36A27.14,27.14,0,1,0,407,443.17,27.17,27.17,0,0,0,379.84,416Z"/><path d="M303,434.12H275.86a9,9,0,1,1,0-18.09H303a9,9,0,1,1,0,18.09Z"/><path d="M276.13,470.31a9,9,0,0,1-.1-18.09h.1a9,9,0,0,1,0,18.09Z"/><path d="M303.24,470.31a9,9,0,0,1-.1-18.09h.1a9,9,0,1,1,0,18.09Z"/><path d="M307.5,235.13a9,9,0,0,1-9-9,9,9,0,1,0-18.09,0,9,9,0,0,1-18.09,0,27.14,27.14,0,1,1,54.27,0A9,9,0,0,1,307.5,235.13Z"/><path d="M307.5,370.85a9,9,0,0,1-9-9.05V226.09a9,9,0,1,1,18.09,0V361.8A9,9,0,0,1,307.5,370.85Z"/><path d="M271.33,370.79a9,9,0,0,1-9.05-9V226.09a9,9,0,1,1,18.09,0V361.75A9,9,0,0,1,271.33,370.79Z"/></g></g></g></svg>