<svg xmlns="http://www.w3.org/2000/svg" xmlns:xlink="http://www.w3.org/1999/xlink" viewBox="0 0 181.41 257.15"><defs><style>.cls-1{opacity:0.3;}.cls-2{fill:url(#Безымянный_градиент_33);}.cls-3{fill:url(#Безымянный_градиент_33-2);}.cls-4{fill:url(#Безымянный_градиент_33-3);}.cls-5{fill:url(#Безымянный_градиент_33-4);}.cls-6{fill:url(#Безымянный_градиент_33-5);}.cls-7{fill:url(#Безымянный_градиент_33-6);}</style><linearGradient id="Безымянный_градиент_33" x1="29.58" y1="94.56" x2="151.83" y2="94.56" gradientUnits="userSpaceOnUse"><stop offset="0" stop-color="#aaffa9"/><stop offset="1" stop-color="#11ffbd"/></linearGradient><linearGradient id="Безымянный_градиент_33-2" x1="0" y1="128.57" x2="181.41" y2="128.57" xlink:href="#Безымянный_градиент_33"/><linearGradient id="Безымянный_градиент_33-3" x1="70.15" y1="72.5" x2="111.26" y2="72.5" xlink:href="#Безымянный_градиент_33"/><linearGradient id="Безымянный_градиент_33-4" x1="70.15" y1="116.63" x2="111.26" y2="116.63" xlink:href="#Безымянный_градиент_33"/><linearGradient id="Безымянный_градиент_33-5" x1="101.78" y1="94.56" x2="122.96" y2="94.56" xlink:href="#Безымянный_градиент_33"/><linearGradient id="Безымянный_градиент_33-6" x1="58.45" y1="94.56" x2="96.99" y2="94.56" xlink:href="#Безымянный_градиент_33"/></defs><title>license</title><g id="Слой_2" data-name="Слой 2"><g id="Слой_1-2" data-name="Слой 1"><g class="cls-1"><path class="cls-2" d="M146.23,69a4.23,4.23,0,0,0-7.68,3.54A52.7,52.7,0,0,1,90.7,147.24a52.68,52.68,0,1,1,39.07-88A4.23,4.23,0,1,0,136,53.56a61.13,61.13,0,1,0,15.79,41A60.64,60.64,0,0,0,146.23,69Z"/><path class="cls-3" d="M175.12,94.56c0-3.23,1.42-7,2.92-11,2.26-6,4.6-12.18,2.62-18.27-2.06-6.35-8-10.21-13.21-13.62-3.43-2.24-6.68-4.35-8.44-6.78s-2.84-6.25-3.92-10.25c-1.63-6-3.47-12.76-8.79-16.63s-12-3.52-18.41-3.22c-4.17.2-8.11.38-11.09-.58-2.77-.9-5.74-3.3-8.87-5.84C103,4.48,97.5,0,90.7,0S78.37,4.48,73.48,8.43c-3.13,2.53-6.1,4.93-8.87,5.83-3,1-6.92.78-11.09.58-6.46-.3-13.14-.62-18.41,3.22S28,28.71,26.32,34.69c-1.09,4-2.11,7.77-3.92,10.25s-5,4.54-8.44,6.78C8.73,55.13,2.81,59,.75,65.34c-2,6.09.36,12.29,2.62,18.28,1.5,4,2.92,7.71,2.92,10.95s-1.42,7-2.92,11c-2.26,6-4.6,12.18-2.62,18.27,2.06,6.35,8,10.21,13.21,13.62,3.43,2.24,6.68,4.35,8.44,6.78s2.83,6.25,3.92,10.25c1.63,6,3.47,12.76,8.79,16.63s12,3.52,18.41,3.22c4.17-.2,8.11-.38,11.09.58,2.77.9,5.74,3.3,8.87,5.84a63,63,0,0,0,7.61,5.52l-16.2,58.13-15-16.67a4.22,4.22,0,0,0-4.37-1.22L24.14,233l13.43-48.15a4.23,4.23,0,0,0-8.14-2.27l-15.5,55.57a4.23,4.23,0,0,0,5.3,5.18l26.21-8,18.3,20.4a4.23,4.23,0,0,0,3.15,1.41,4,4,0,0,0,1-.12,4.2,4.2,0,0,0,3.11-3l18.13-65a13.09,13.09,0,0,0,3.23,0l18.13,65a4.22,4.22,0,0,0,3.11,3,4,4,0,0,0,1,.12,4.21,4.21,0,0,0,3.15-1.41L136,235.34l26.22,8a4.23,4.23,0,0,0,5.3-5.18l-19.19-68.83c3.82-4,5.39-9.72,6.8-14.88,1.08-4,2.11-7.78,3.91-10.26s5-4.54,8.45-6.77c5.23-3.41,11.15-7.27,13.21-13.62,2-6.09-.36-12.29-2.62-18.28C176.54,101.55,175.12,97.8,175.12,94.56ZM157.27,233l-21.42-6.53a4.24,4.24,0,0,0-4.38,1.22l-15,16.67-16.21-58.13a61.25,61.25,0,0,0,7.61-5.53c3.14-2.53,6.11-4.93,8.88-5.83,3-1,6.92-.78,11.09-.58,4.34.2,8.78.4,12.83-.65Zm15.35-111.82c-1.14,3.51-5.34,6.25-9.79,9.15-3.92,2.55-8,5.2-10.66,8.88s-4,8.45-5.24,13c-1.38,5.09-2.69,9.89-5.61,12s-7.8,1.85-13,1.6c-4.75-.22-9.66-.45-14.1,1-4.26,1.39-8,4.39-11.58,7.3-4.16,3.37-8.1,6.55-11.91,6.55S83,177.5,78.8,174.13c-3.6-2.91-7.32-5.92-11.58-7.3a28.44,28.44,0,0,0-8.81-1.15c-1.76,0-3.54.08-5.29.16-5.23.25-10.16.48-13-1.6s-4.23-6.93-5.61-12c-1.24-4.56-2.52-9.27-5.24-13s-6.74-6.33-10.67-8.88c-4.44-2.9-8.64-5.64-9.78-9.15-1.07-3.27.66-7.84,2.49-12.68,1.7-4.5,3.46-9.16,3.46-13.93S13,85.13,11.28,80.63C9.45,75.79,7.72,71.22,8.79,68c1.14-3.51,5.34-6.25,9.79-9.14,3.92-2.56,8-5.2,10.66-8.89s4-8.45,5.24-13c1.38-5.09,2.69-9.89,5.61-12s7.8-1.86,13-1.61c4.75.22,9.66.45,14.1-1,4.26-1.38,8-4.39,11.58-7.3C83,11.63,86.9,8.45,90.7,8.45s7.75,3.18,11.91,6.55c3.6,2.91,7.32,5.92,11.58,7.3,4.44,1.44,9.35,1.21,14.1,1,5.22-.25,10.16-.48,13,1.6s4.23,6.93,5.61,12c1.24,4.56,2.52,9.27,5.24,13s6.74,6.33,10.66,8.88c4.45,2.9,8.65,5.64,9.79,9.15,1.06,3.27-.66,7.84-2.49,12.68-1.7,4.5-3.46,9.16-3.46,13.93s1.76,9.44,3.46,13.94C172,113.34,173.69,117.91,172.62,121.18Z"/><path class="cls-4" d="M107,68.28H74.38a4.23,4.23,0,1,0,0,8.45H107a4.23,4.23,0,1,0,0-8.45Z"/><path class="cls-5" d="M107,112.4H74.38a4.23,4.23,0,1,0,0,8.45H107a4.23,4.23,0,1,0,0-8.45Z"/><path class="cls-6" d="M118.73,90.34H106a4.23,4.23,0,0,0,0,8.45h12.73a4.23,4.23,0,1,0,0-8.45Z"/><path class="cls-7" d="M92.77,90.34H62.67a4.23,4.23,0,0,0,0,8.45h30.1a4.23,4.23,0,0,0,0-8.45Z"/></g></g></g></svg>