<svg xmlns="http://www.w3.org/2000/svg" xmlns:xlink="http://www.w3.org/1999/xlink" viewBox="0 0 213.36 228.59"><defs><style>.cls-1{opacity:0.3;}.cls-2{fill:url(#Безымянный_градиент_33);}.cls-3{fill:url(#Безымянный_градиент_33-2);}.cls-4{fill:url(#Безымянный_градиент_33-3);}.cls-5{fill:url(#Безымянный_градиент_33-4);}.cls-6{fill:url(#Безымянный_градиент_33-5);}.cls-7{fill:url(#Безымянный_градиент_33-6);}.cls-8{fill:url(#Безымянный_градиент_33-7);}.cls-9{fill:url(#Безымянный_градиент_33-8);}.cls-10{fill:url(#Безымянный_градиент_33-9);}.cls-11{fill:url(#Безымянный_градиент_33-10);}.cls-12{fill:url(#Безымянный_градиент_33-11);}.cls-13{fill:url(#Безымянный_градиент_33-12);}.cls-14{fill:url(#Безымянный_градиент_33-13);}.cls-15{fill:url(#Безымянный_градиент_33-14);}.cls-16{fill:url(#Безымянный_градиент_33-15);}.cls-17{fill:url(#Безымянный_градиент_33-16);}</style><linearGradient id="Безымянный_градиент_33" x1="129.53" y1="140.96" x2="160.01" y2="140.96" gradientUnits="userSpaceOnUse"><stop offset="0" stop-color="#aaffa9"/><stop offset="1" stop-color="#11ffbd"/></linearGradient><linearGradient id="Безымянный_градиент_33-2" x1="137.15" y1="78.1" x2="198.11" y2="78.1" xlink:href="#Безымянный_градиент_33"/><linearGradient id="Безымянный_градиент_33-3" x1="121.91" y1="95.24" x2="160.01" y2="95.24" xlink:href="#Безымянный_градиент_33"/><linearGradient id="Безымянный_градиент_33-4" x1="83.82" y1="95.24" x2="114.29" y2="95.24" xlink:href="#Безымянный_градиент_33"/><linearGradient id="Безымянный_градиент_33-5" x1="83.82" y1="118.1" x2="99.05" y2="118.1" xlink:href="#Безымянный_градиент_33"/><linearGradient id="Безымянный_градиент_33-6" x1="83.82" y1="72.39" x2="129.53" y2="72.39" xlink:href="#Безымянный_градиент_33"/><linearGradient id="Безымянный_градиент_33-7" x1="106.67" y1="118.1" x2="152.39" y2="118.1" xlink:href="#Безымянный_градиент_33"/><linearGradient id="Безымянный_градиент_33-8" x1="129.53" y1="163.82" x2="144.77" y2="163.82" xlink:href="#Безымянный_градиент_33"/><linearGradient id="Безымянный_градиент_33-9" x1="83.82" y1="140.96" x2="121.91" y2="140.96" xlink:href="#Безымянный_градиент_33"/><linearGradient id="Безымянный_градиент_33-10" x1="83.82" y1="163.82" x2="121.91" y2="163.82" xlink:href="#Безымянный_градиент_33"/><linearGradient id="Безымянный_градиент_33-11" x1="129.53" y1="186.75" x2="213.36" y2="186.75" xlink:href="#Безымянный_градиент_33"/><linearGradient id="Безымянный_градиент_33-12" x1="0" y1="114.29" x2="182.87" y2="114.29" xlink:href="#Безымянный_градиент_33"/><linearGradient id="Безымянный_градиент_33-13" x1="83.82" y1="186.68" x2="121.91" y2="186.68" xlink:href="#Безымянный_градиент_33"/><linearGradient id="Безымянный_градиент_33-14" x1="38.1" y1="83.82" x2="68.58" y2="83.82" xlink:href="#Безымянный_градиент_33"/><linearGradient id="Безымянный_градиент_33-15" x1="38.1" y1="175.25" x2="68.58" y2="175.25" xlink:href="#Безымянный_градиент_33"/><linearGradient id="Безымянный_градиент_33-16" x1="38.1" y1="129.53" x2="68.58" y2="129.53" xlink:href="#Безымянный_градиент_33"/></defs><title>sertificat</title><g id="Слой_2" data-name="Слой 2"><g id="Слой_1-2" data-name="Слой 1"><g class="cls-1"><path class="cls-2" d="M160,141a3.82,3.82,0,0,0-3.81-3.81H133.34a3.81,3.81,0,0,0,0,7.62H156.2A3.81,3.81,0,0,0,160,141Z"/><path class="cls-3" d="M144.77,41.91v-19a3.81,3.81,0,1,0-7.62,0v19A19.08,19.08,0,0,0,156.2,61h34.29v72.38a3.81,3.81,0,0,0,7.62,0V57.15a3.81,3.81,0,0,0-3.81-3.81H156.2A11.45,11.45,0,0,1,144.77,41.91Z"/><path class="cls-4" d="M156.2,91.43H125.72a3.81,3.81,0,0,0,0,7.62H156.2a3.81,3.81,0,1,0,0-7.62Z"/><path class="cls-5" d="M114.29,95.24a3.81,3.81,0,0,0-3.81-3.81H87.63a3.81,3.81,0,0,0,0,7.62h22.85A3.8,3.8,0,0,0,114.29,95.24Z"/><path class="cls-6" d="M87.62,114.29a3.81,3.81,0,0,0,0,7.62h7.62a3.81,3.81,0,1,0,0-7.62Z"/><path class="cls-7" d="M87.62,76.2h38.1a3.81,3.81,0,0,0,0-7.62H87.62a3.81,3.81,0,0,0,0,7.62Z"/><path class="cls-8" d="M110.48,121.91h38.1a3.81,3.81,0,0,0,0-7.62h-38.1a3.81,3.81,0,0,0,0,7.62Z"/><path class="cls-9" d="M133.34,160a3.81,3.81,0,1,0,0,7.62H141a3.81,3.81,0,0,0,0-7.62Z"/><path class="cls-10" d="M118.1,137.15H87.62a3.81,3.81,0,0,0,0,7.62H118.1a3.81,3.81,0,0,0,0-7.62Z"/><path class="cls-11" d="M118.1,160H87.62a3.81,3.81,0,0,0,0,7.62H118.1a3.81,3.81,0,0,0,0-7.62Z"/><path class="cls-12" d="M208.81,156.93l-7.62-7.62a14.32,14.32,0,0,0-20.63,0l-49.91,49.92a3.82,3.82,0,0,0-1.12,2.69v22.86a3.82,3.82,0,0,0,3.81,3.81H156.2a3.82,3.82,0,0,0,2.69-1.12l49.92-49.91C214.88,171.49,214.88,163,208.81,156.93ZM175.64,165l6,6-33.1,33.1-6-6Zm-38.49,56V203.5L154.62,221ZM160,215.58l-6-6,33.1-33.1,6,6Zm43.41-43.41-4.92,4.92L181,159.62,186,154.7c3-3,6.83-3,9.85,0l7.62,7.62C206.51,165.4,206.51,169.09,203.42,172.17Z"/><path class="cls-13" d="M118.1,221h-99A11.45,11.45,0,0,1,7.62,209.54V19.05A11.45,11.45,0,0,1,19.05,7.62H139.38l37,37a3.81,3.81,0,1,0,5.38-5.39L143.66,1.12A3.82,3.82,0,0,0,141,0H19.05A19.08,19.08,0,0,0,0,19.05V209.54a19.08,19.08,0,0,0,19.05,19.05H118.1a3.81,3.81,0,0,0,0-7.62Z"/><path class="cls-14" d="M118.1,182.87H87.62a3.81,3.81,0,0,0,0,7.62H118.1a3.81,3.81,0,0,0,0-7.62Z"/><path class="cls-15" d="M68.58,72.39a3.81,3.81,0,0,0-3.81-3.81H41.91a3.8,3.8,0,0,0-3.81,3.81V95.24a3.8,3.8,0,0,0,3.81,3.81H64.77a3.81,3.81,0,0,0,3.81-3.81ZM61,91.43H45.72V76.2H61Z"/><path class="cls-16" d="M41.91,190.49H64.77a3.82,3.82,0,0,0,3.81-3.81V163.82A3.82,3.82,0,0,0,64.77,160H41.91a3.81,3.81,0,0,0-3.81,3.81v22.86A3.81,3.81,0,0,0,41.91,190.49Zm3.81-22.86H61v15.24H45.72Z"/><path class="cls-17" d="M46.83,143.66a3.85,3.85,0,0,0,2.7,1.11,2.36,2.36,0,0,0,.37,0,3.84,3.84,0,0,0,2.8-1.67l15.24-22.86A3.81,3.81,0,1,0,61.6,116L48.94,135l-4.34-4.33A3.81,3.81,0,0,0,39.21,136Z"/></g></g></g></svg>